<svg version="1.2" xmlns="http://www.w3.org/2000/svg" viewBox="0 0 655 596" width="655" height="596">
	<style>
		.s0 { fill: #ffd780 }
		.s1 { fill: #ffd16b }
		.s2 { fill: #fcba4e }
		.s3 { fill: #fcae30 }
		.s4 { fill: #ffffeb }
	</style>
	<g id="OBJECTS">
		<g id="&lt;Group&gt;">
			<g id="&lt;Group&gt;">
				<path id="&lt;Path&gt;" class="s0" d="m600.1 247.2c-0.7-6.9-6.3-12.6-13.2-13.5-3-0.4-5.9 0.2-8.4 1.3 0-0.4 0-0.9 0-1.4 0-16.9-13.6-30.6-30.5-30.6-6.5 0-12.5 2.1-17.4 5.5-5.1-20.7-24.5-35.8-47.1-34.1-21.6 1.6-39.2 18.8-41.3 40.3-0.7 6.7 0.2 13.1 2.2 19q-0.9-0.1-1.9-0.1c-3 0-5.8 0.9-8.1 2.3q0-0.4 0-0.8c0-16-13-29-29-29-16 0-29 13-29 29 0 1.6 0.1 3.1 0.4 4.6h-48.8c-6.7 0-12.2 5.5-12.2 12.2 0 6.8 5.5 12.2 12.2 12.2h262.2v-0.9c6.3-2.3 10.7-8.7 9.9-16z"/>
			</g>
			<path id="&lt;Path&gt;" class="s1" d="m35.8 465.4c0 0 72.4-137.2 158.5-135.8 124 2.1 201.4 120.7 201.4 120.7z"/>
			<path id="&lt;Path&gt;" class="s0" d="m216.8 465.4c0 0 102.2-174.6 188.4-173.2 123.9 2.1 188.4 170.3 188.4 170.3z"/>
			<path id="&lt;Path&gt;" class="s2" d="m610.2 488.4c0 30.4-135.8 30.2-289.1 50.9-239.5 32.3-285.3-73.9-285.3-73.9 11.5-28.8 157.8-66.7 300.3-66.7 142.5 0 274.1 59.3 274.1 89.7z"/>
			<g id="&lt;Group&gt;">
				<path id="&lt;Path&gt;" class="s0" d="m341.3 148.7h-47.2c1.3-4.9 1.2-10.4-1.8-16.2-3.2-6.3-9.1-11.1-16-12.6-4.3-0.9-8.5-0.6-12.2 0.7q0-0.4 0-0.8c0-22.9-18.6-41.6-41.6-41.6-20.3 0-37.2 14.6-40.8 33.9q-2.5-0.5-5.2-0.5c-14.5 0-26.4 11.3-27.2 25.7h-64.2c-7.9 0-14.8 6.1-15 14-0.3 8.2 6.3 14.9 14.4 14.9h256.8c4.8 0 8.7-3.9 8.7-8.7 0-4.9-3.9-8.8-8.7-8.8z"/>
			</g>
			<g id="&lt;Group&gt;">
				<path id="&lt;Path&gt;" class="s0" d="m516.6 96.9h-28.1c0.8-3 0.7-6.2-1.1-9.7-1.9-3.8-5.3-6.6-9.5-7.5-2.6-0.5-5-0.3-7.2 0.4q0-0.2 0-0.4c0-13.7-11.1-24.8-24.8-24.8-12.1 0-22.1 8.7-24.3 20.2q-1.5-0.3-3.1-0.3c-8.6 0-15.7 6.7-16.2 15.3h-38.1c-4.7 0-8.8 3.6-9 8.3-0.1 4.9 3.8 8.9 8.6 8.9h152.8c2.9 0 5.2-2.4 5.2-5.2 0-2.9-2.3-5.2-5.2-5.2z"/>
			</g>
			<path id="&lt;Path&gt;" class="s3" d="m90.5 434.2c23.9 28.2 94.4 82.4 274.7 58.1 90.8-12.3 175.4-17.2 229.3-25.5-38.9-30.6-145.2-68.1-258.4-68.1-93.1 0-187.9 16.2-245.6 35.5z"/>
			<path id="&lt;Path&gt;" class="s3" d="m165 429.6v11.4c0 0.8 1.9 0.5 1.9-0.2v-11.4c0-0.8-1.9-0.5-1.9 0.2z"/>
			<g id="&lt;Group&gt;">
				<g id="&lt;Group&gt;">
					<path id="&lt;Path&gt;" class="s4" d="m154.5 439.4h28.7v-95c33.5-2.3 60.1-30.3 60.1-64.4 0-8.1-6.6-14.7-14.7-14.7-8.1 0-14.6 6.6-14.6 14.7 0 17.9-13.5 32.7-30.8 34.9v-40.3c0-7.9-6.4-14.3-14.3-14.3-8 0-14.4 6.4-14.4 14.3v73.5c-14.8-4.1-25.6-17.7-25.6-33.9 0-8.1-6.6-14.6-14.7-14.6-8.1 0-14.7 6.5-14.7 14.6 0 32.4 23.9 59.3 55 63.9z"/>
				</g>
				<path id="&lt;Path&gt;" class="s3" d="m153 378.2c1.2 1.1 0 8.4 0 10v38.8c0 3.9-0.3 8.2-0.1 12.4h3.1c-0.4-4.9 0-10.1 0-14.9v-46.4c0-0.6-0.4-1.3-1.1-1.4-28.7-4.9-54.9-30.3-53.9-61 0.3-7.7 4.6-14.6 13.2-14.6 9 0 12.2 7 13.2 14.6 0.7 4.9 1.2 9.3 3.4 13.9 4.6 10 13 16.6 23.3 20 1 0.3 1.9-0.5 1.9-1.5v-67.8c0-6.3-0.1-13 6.4-16.7 9.2-5.4 18.3 2.1 19.3 11.5 0.1 1.8 0 3.7 0 5.5v34.3c0 1 0.9 1.6 1.9 1.4 11.1-1.8 20.8-7.8 26.7-17.5 2.4-4.1 4-8.6 4.7-13.3 1-6.5 0.3-13 7-16.9 9.2-5.4 18.9 1.7 19.8 11.4-0.7 33.1-25.5 59.9-58.6 62.9-0.8 0.1-1.5 0.6-1.5 1.5v91.3c0 1.2 0 2.4 0 3.7h3.2c0.4-5.2-0.2-10.7-0.2-15.6v-64.4c0-3.7-1.2-9.6 0-13.1 0.2-0.7 0.2-1 0.2-1.1 0.1 0 0.2 0 0.4-0.2 1.9-1 8.9-0.7 11.8-1.6 8.8-2.5 17-6.9 24-12.8 15.2-12.6 23.3-31.1 23.7-50.6-1.1-12.9-15.3-21.5-26.4-12.6-5.2 4.2-5.4 9.3-6.1 15.4-0.6 6-2.5 11.7-6.1 16.7-5 7-11.1 9-18.1 12.8-3.4 1.9-2.7 3-3.4 0.8-0.6-1.7 0-4.6 0-6.4v-20.5c0-9.1 1.4-19.8-7.9-25.2-10.9-6.4-22.9 2-23.8 13.7-0.5 8.3 0 16.8 0 25v38.4c0 2 1.1 7.6 0 9.4 0.8-1.3-5.2-3.6-7.4-5.1-6.4-4.1-11.2-10.5-13.6-17.7-2.3-7.1-0.3-14.9-5.5-21-4.1-4.7-10.6-6.6-16.6-5-15.6 4.3-12.6 23.3-8.9 35.1 4.8 15.7 15.7 29.3 29.9 37.6 3.2 1.8 6.6 3.4 10 4.7 2.4 0.9 5.3 2.2 7.8 2.4-2.5-0.2 5.5 0.8 4.3-0.3z"/>
				<path id="&lt;Path&gt;" class="s3" d="m172.6 288.2v46.8c0 0.8 1.6 0.6 1.6-0.1v-46.8c0-0.9-1.6-0.6-1.6 0.1z"/>
				<path id="&lt;Path&gt;" class="s3" d="m175.4 354.9v12.4c0 0.5 1.7 0.2 1.7-0.4v-12.4c0-0.4-1.7-0.1-1.7 0.4z"/>
				<path id="&lt;Path&gt;" class="s3" d="m172.6 388.8v32.7c0 0.4 1.6 0.1 1.6-0.4v-32.8c0-0.3-1.6-0.1-1.6 0.5z"/>
				<path id="&lt;Path&gt;" class="s3" d="m165.2 310.8v48.5c0 0.9 1.7 0.6 1.7-0.1v-48.6c0-0.8-1.7-0.6-1.7 0.2z"/>
				<path id="&lt;Path&gt;" class="s3" d="m165.3 371.9v8.4c0 0.5 1.6 0.2 1.6-0.4v-8.5c0-0.5-1.6-0.2-1.6 0.5z"/>
				<path id="&lt;Path&gt;" class="s3" d="m162.4 271.8v10.8c0 0.7 1.7 0.4 1.7-0.2v-10.7c0-0.8-1.7-0.5-1.7 0.1z"/>
				<path id="&lt;Path&gt;" class="s3" d="m144.6 355.9c-13.3-10.8-24.8-25.3-23.9-43.3 0.1-0.3-1.6-0.1-1.6 0.4-0.9 18.1 10.7 32.7 24 43.5 0.4 0.3 1.9-0.4 1.5-0.6z"/>
				<path id="&lt;Path&gt;" class="s3" d="m130.7 354.4c-3.5-2.9-6.4-6.5-8.4-10.6-0.3-0.7-1.9-0.2-1.6 0.4 2 4.2 4.9 7.9 8.5 10.8 0.5 0.4 2-0.2 1.5-0.6z"/>
				<path id="&lt;Path&gt;" class="s3" d="m119.4 351.5c-9.2-10.1-14-23.2-13.4-36.9 0.1-0.9-1.6-0.7-1.6 0.1-0.7 13.9 4.1 27.3 13.5 37.6 0.5 0.5 2.1-0.1 1.5-0.8z"/>
				<path id="&lt;Path&gt;" class="s3" d="m222 282c-2.1 9.8-6.3 18.8-12.6 26.7-0.1 0.1 1.3 0.1 1.6-0.3 6.3-7.9 10.5-16.9 12.6-26.7 0.1-0.3-1.5-0.1-1.6 0.3z"/>
				<path id="&lt;Path&gt;" class="s3" d="m195.3 317.8c-1.8 2.3-4.6 3.4-7.5 3-0.8-0.1-1.7 1-0.6 1.2 3.6 0.5 7.2-0.9 9.4-3.7 0.7-0.9-0.9-1.1-1.3-0.5z"/>
				<path id="&lt;Path&gt;" class="s3" d="m231.7 272.1c0-0.3-1.7 0-1.6 0.5 0.7 5.9-0.4 11.6-3.3 16.8-0.2 0.2 1.3 0.1 1.6-0.3 2.9-5.3 4-11 3.3-17z"/>
				<path id="&lt;Path&gt;" class="s3" d="m234.9 291.5c-6.8 21.1-25.3 37.3-47.2 41.1-0.9 0.1-1.3 1.2-0.2 1 22.7-3.9 41.9-20.3 49.1-42.3 0.2-0.6-1.5-0.4-1.7 0.2z"/>
				<path id="&lt;Path&gt;" class="s3" d="m161.5 411.6v21.4c0 0.4 2 0.1 2-0.6v-21.3c0-0.4-2-0.1-2 0.5z"/>
			</g>
			<g id="&lt;Group&gt;">
				<path id="&lt;Path&gt;" class="s3" d="m234 352.1c0-3 2.5-5.6 5.6-5.6 3.1 0 5.6 2.6 5.6 5.6 0 6.9 5.2 12.6 11.8 13.4v-15.4c0-3 2.4-5.5 5.5-5.5 3 0 5.4 2.5 5.4 5.5v28.1c5.7-1.6 9.8-6.8 9.8-13 0-3.1 2.5-5.6 5.6-5.6 3.1 0 5.6 2.5 5.6 5.6 0 12.4-9.1 22.7-21 24.4v23.8c0 3-2.4 5.5-5.4 5.5-3.1 0-5.5-2.5-5.5-5.5v-36.6c-12.8-0.9-23-11.6-23-24.7z"/>
			</g>
			<g id="&lt;Group&gt;">
				<path id="&lt;Path&gt;" class="s3" d="m517.6 398.3c0-2.8 2.3-5 5.1-5 2.7 0 5 2.2 5 5 0 6.1 4.6 11.2 10.6 12v-13.8c0-2.8 2.1-5 4.9-5 2.7 0 4.9 2.2 4.9 5v25.2c5-1.5 8.8-6.1 8.8-11.6 0-2.8 2.2-5.1 5-5.1 2.8 0 5 2.3 5 5.1 0 11.1-8.2 20.3-18.8 21.9v21.3c0 2.7-2.2 4.9-4.9 4.9-2.8 0-4.9-2.2-4.9-4.9v-32.9c-11.6-0.8-20.7-10.4-20.7-22.1z"/>
			</g>
			<g id="&lt;Group&gt;">
				<g id="&lt;Group&gt;">
					<g id="&lt;Group&gt;">
						<path id="&lt;Path&gt;" class="s4" d="m537.5 327.1c-6.6 0-12 5.3-12 12v0.6c0 10.3-8.4 18.7-18.7 18.7h-7v-64.5c0-7.6-6.2-13.8-13.8-13.8-7.6 0-13.8 6.2-13.8 13.8v35.7c-7.2-0.4-13-6.3-13-13.6v-1.9c0-6.6-5.3-12-12-12-6.6 0-12 5.4-12 12v1.9c0 20.5 16.6 37.2 37 37.6v31.7h-7.7c-10.3 0-18.7-8.4-18.7-18.7 0-6.6-5.4-12-12-12-6.7 0-12 5.4-12 12 0 23.6 19.1 42.8 42.7 42.8h7.7v26.4h27.6v-53.3h7c23.6 0 42.8-19.2 42.8-42.8v-0.6c0-6.7-5.4-12-12.1-12z"/>
					</g>
					<path id="&lt;Path&gt;" class="s3" d="m538.2 325.7q-0.3-0.1-0.7 0-0.3-0.1-0.6 0.1c-5.2 0.6-9.7 3.1-11.8 8.2-1.3 3.3-0.6 6.9-1.6 10.3-2.2 8-9.3 12.3-17.2 12.7-1.7 0.1-4.6-0.7-5.3 0.1 0-0.7 0.1-1.5 0.2-1.9 0.3-5.1 0-10.3 0-15.5v-38.3c0-8.8-0.1-18.1-10-21.7-10.9-4-20 4.8-20.4 15.3-0.2 5.2 0 10.6 0 15.8 0 4 1.8 14 0 17.7 0 0.1 0 0.1 0 0.2-0.1 0-0.2 0-0.3 0-1.4 0.4-7.8-5.9-8.3-6.8-2.3-4.1-0.8-8.6-2.6-12.9-2-4.9-7-8.3-12.4-8.3-16.1 0-14.7 19.8-10.4 30.1 2.6 6.3 6.8 11.8 12.1 15.9q3.9 3.1 8.5 5.1 3.4 1.5 7 2.3c0 0 6.7 0.9 5.8 0.2 0.4 0.4 0.6 1.3 0.6 3.6v8c0 5.4 1.4 12.9 0 18.2-0.8 0-1.8-0.1-2.4-0.2-4.5-0.5-8.3 0.2-12.6-2.3-10.9-6.4-5-19.3-14.3-25.9-12.3-8.7-22.2 4.5-20.8 16.1 1.8 15.4 12 29.1 26.3 35.3 6.6 2.9 13.4 3.6 20.5 3.7q1.6 0 3.2 0 0.2 0 0.3-0.1c0.3 1.9-0.2 4.6-0.2 6.3 0 5.2-0.9 12.3-0.5 18.8h3.3c-0.4-8.7 0-17.6 0-26.4 0-0.8-0.6-1.4-1.4-1.4-10 0-19.5-0.4-28.5-5.7-12.1-7.1-24.9-25.1-19-39.4q1.3-6.8 9.1-6.9 9.7 0.9 10.6 10.6c0.5 2.2 0.4 4.3 1.1 6.5 1.3 3.8 3.6 7 6.7 9.4 6 4.7 12.9 4.2 20 4.2 0.8 0 1.4-0.6 1.4-1.4v-31.7c0-0.8-0.6-1.3-1.4-1.4-17.9-0.9-39.5-17.8-35.6-38.1 1.1-5.7 4.7-9.8 10.6-10.6 7.4-1 9.5 6.5 10.6 11.5 0.5 2.1 0.2 4.1 1 6.1 2.1 5.8 7.2 9 13 9.8 0.9 0.2 1.8-0.3 1.8-1.3v-30.5c0-8 2-17.6 12.4-17.6 9.6 0 12.4 8.8 12.4 16.5v60.4c0 0.8 0.6 1.4 1.4 1.4 6.9 0 13.6 0.3 19.4-4.3 3.4-2.6 5.9-6.3 7-10.4 2-7.4 0.2-15.5 11.3-16.6 22.5 2.2 5.1 34.7-3.3 42.1-10 8.9-21.6 10.5-34.4 10.5-0.8 0-1.4 0.6-1.4 1.4v52.2q0 0.5-0.1 1.1h3.3c0.7-8.9-0.4-18.5-0.4-27.1v-19.4c0-1.5-0.4-3.7-0.2-5.3 0.7 0.4 2.6-0.1 4-0.1 17.2-0.2 33-8.4 41.1-24.1 5.9-11.4 9.2-31.8-7.9-34.1z"/>
				</g>
				<path id="&lt;Path&gt;" class="s3" d="m491.3 339.1v42.2c0 0.5 1.8 0.2 1.8-0.5v-42.2c0-0.5-1.8-0.2-1.8 0.5z"/>
				<path id="&lt;Path&gt;" class="s3" d="m482.6 355.1v12.1c0 0.8 1.8 0.4 1.8-0.2v-12.1c0-0.8-1.8-0.4-1.8 0.2z"/>
				<path id="&lt;Path&gt;" class="s3" d="m483.6 389.4v27.6c0 0.3 1.8 0.1 1.8-0.5v-27.6c0-0.3-1.8 0-1.8 0.5z"/>
				<path id="&lt;Path&gt;" class="s3" d="m488.5 289.7v19.6c0 0.3 1.8 0 1.8-0.5v-19.6c0-0.3-1.8-0.1-1.8 0.5z"/>
				<path id="&lt;Path&gt;" class="s3" d="m480.1 299.8v5.6c0 0.8 1.8 0.5 1.8-0.2v-5.6c0-0.8-1.8-0.5-1.8 0.2z"/>
				<path id="&lt;Path&gt;" class="s3" d="m534.7 343.9c-2.4 5.6-4.9 11.5-9.3 15.9-6.1 6-13.6 6.2-21.7 5.7-0.8 0-1.8 1.2-0.6 1.3 7 0.4 14.2 0.6 20.2-3.5 6.6-4.6 10-12.1 13.1-19.3 0.4-0.9-1.4-0.8-1.7-0.1z"/>
				<path id="&lt;Path&gt;" class="s3" d="m539.3 353.4c-1.5 3.8-3.8 7.1-6.8 9.8-0.5 0.4 1.3 0.2 1.6-0.1 3.1-2.7 5.5-6.1 7-10 0.1-0.4-1.6-0.2-1.8 0.3z"/>
				<path id="&lt;Path&gt;" class="s3" d="m493.1 435.8v-26.2c0-1-1.8-0.8-1.8 0.1v26.1z"/>
				<path id="&lt;Path&gt;" class="s3" d="m492.2 397.1v3.8c0 0.9 1.9 0.7 1.9-0.2v-3.7c0-1-1.9-0.7-1.9 0.1z"/>
				<path id="&lt;Path&gt;" class="s3" d="m462 392c-13-1.8-22.6-11.6-24.2-24.5-0.1-0.7-1.9-0.2-1.8 0.4 1.7 13.3 11.7 23.3 24.9 25.1 0.6 0.1 2.1-0.9 1.1-1z"/>
				<path id="&lt;Path&gt;" class="s3" d="m460.1 399.2q-2.4 0-4.6-0.9c-0.8-0.3-2.1 0.8-1.1 1.3q2.7 1.1 5.6 1c1-0.1 1.4-1.5 0.1-1.4z"/>
				<path id="&lt;Path&gt;" class="s3" d="m458.6 341.8c-4-0.1-8.9-6.9-11.1-9.8-3.4-4.6-5.5-9.8-4.6-15.6 0.1-0.7-1.7-0.3-1.8 0.2-0.9 6.2 1.4 11.8 5.2 16.7 2.7 3.4 6.9 9.3 11.6 9.4 0.6 0 1.9-0.9 0.7-0.9z"/>
				<path id="&lt;Path&gt;" class="s3" d="m459.9 330.9c-2.9-0.5-5.2-2.9-5.6-5.8 0-0.3-1.9 0-1.8 0.5 0.4 3.1 2.9 5.5 5.9 6 0.4 0.1 0.9 0 1.3-0.2 0.1-0.1 0.6-0.4 0.2-0.5z"/>
				<path id="&lt;Path&gt;" class="s3" d="m477.3 323.7v16.8c0 0.4 1.8 0.1 1.8-0.5v-16.8c0-0.4-1.8-0.1-1.8 0.5z"/>
				<path id="&lt;Path&gt;" class="s3" d="m491.8 319.4v6.5c0 0.8 1.8 0.4 1.8-0.2v-6.5c0-0.8-1.8-0.5-1.8 0.2z"/>
			</g>
			<g id="&lt;Group&gt;">
				<path id="&lt;Path&gt;" class="s2" d="m96.5 404.7c-2.3 0-4.1 1.8-4.1 4.1v0.2c0 3.5-2.9 6.4-6.5 6.4h-2.4v-22.1c0-2.6-2.1-4.7-4.7-4.7-2.6 0-4.7 2.1-4.7 4.7v12.2c-2.5-0.1-4.5-2.1-4.5-4.6v-0.7c0-2.3-1.8-4.1-4.1-4.1-2.2 0-4.1 1.8-4.1 4.1v0.7c0 7 5.7 12.7 12.7 12.9v10.8h-2.6c-3.6 0-6.5-2.9-6.5-6.4 0-2.3-1.8-4.1-4.1-4.1-2.2 0-4.1 1.8-4.1 4.1 0 8.1 6.6 14.7 14.7 14.7h2.6v10c0 2.6 2.1 4.7 4.7 4.7 2.6 0 4.7-2.1 4.7-4.7v-19.3h2.4c8.1 0 14.7-6.5 14.7-14.6v-0.2c0-2.3-1.9-4.1-4.1-4.1z"/>
			</g>
			<g id="&lt;Group&gt;">
				<path id="&lt;Path&gt;" class="s4" d="m534.9 483.3c-1.9-0.3-3.9-0.2-5.7 0.4q-0.4 0.1-0.8 0.2c1.1-2.9 1.7-6 2.5-9.1 0.1-0.5-0.4-1.1-0.9-0.8q-3.4 1.8-6.4 4.2c-0.4-4.7-3.4-9.2-5.5-13.3-0.2-0.4-0.9-0.5-1.2-0.1q-3 4.8-4.3 10.3-0.6-1-1.4-1.9c-1.1-1.2-3.5-3.6-5.3-3.2-1.9 0.4-1.1 3.7-1 5 0.2 2.6 0.6 5.1 1.2 7.5-2.6 0.3-5.1 0.9-7.5 2-2.4 1.2-3.3 1.9-1.1 3.9 4.9 4.5 10.4 8.8 17.3 8.8q0 0 0 0.1 0.2 0.1 0.3 0.1c0.2 0.1 0.4 0.1 0.6 0.1q0.6-0.1 1.1-0.4c7.7-1.5 14.4-5.9 20.7-10.4 2.6-2-0.6-3-2.6-3.4z"/>
				<path id="&lt;Compound Path&gt;" fill-rule="evenodd" class="s3" d="m537.5 486.7c-6.3 4.5-13 8.9-20.7 10.4q-0.5 0.3-1.1 0.4c-0.2 0-0.4 0-0.6-0.1q-0.1 0-0.3-0.1 0-0.1 0-0.1c-6.9 0-12.4-4.3-17.3-8.8-2.2-2-1.3-2.7 1.1-3.9 2.4-1.1 4.9-1.7 7.5-2-0.6-2.4-1-4.9-1.2-7.5-0.1-1.3-0.9-4.6 1-5 1.8-0.4 4.2 2 5.3 3.2q0.8 0.9 1.4 1.9 1.3-5.5 4.3-10.3c0.3-0.4 1-0.3 1.2 0.1 2.1 4.1 5.1 8.6 5.5 13.3q3-2.4 6.4-4.2c0.5-0.3 1 0.3 0.9 0.8-0.8 3.1-1.4 6.2-2.5 9.1q0.4-0.1 0.8-0.2c1.8-0.6 3.8-0.7 5.7-0.4 2 0.4 5.2 1.4 2.6 3.4zm-24.2 9.1q-1.1-1-2-2.2c-3.4-1.5-6.3-3.7-8.6-6.5-0.2-0.2 0.3-0.3 0.5-0.2 2.1 2.6 4.6 4.6 7.6 6-2-2.6-3.4-5.6-4.3-8.8q-0.1-0.2-0.1-0.3c-2.4 0.2-4.7 0.8-6.9 1.7-0.3 0.2-1.3 0.4-1.5 0.8-0.5 0.7-0.3 0.4 0.2 1 0.8 1.1 2.1 2 3.2 2.8 3.5 2.9 7.4 5.2 11.9 5.7zm2.1-8.1q0-0.1 0-0.2c-0.3-1.8-0.7-3.5-1.1-5.2-0.6-2.2-1.3-4.3-2.5-6.2-0.8-1.3-3.4-4.9-5.2-4.4-0.9 0.3-0.5 0.9-0.5 1.7q0.1 1.1 0.2 2.1 0.1 1.7 0.4 3.4 0.3 2 0.8 3.8 0 0.2 0 0.3 0.4 1.4 0.9 2.8c1.1 3 2.7 5.8 4.9 8.2q0 0 0 0 0.1 0.1 0.1 0.1 0.8 0.9 1.7 1.7 0-0.1 0.1-0.2c-0.1 0-0.3 0-0.3-0.1q-3.1-8.6-5.9-17.4c-0.1-0.3 0.4-0.4 0.5-0.1q2.7 8.6 5.8 17.2c0.6-2.4 0.5-5 0.1-7.5zm1.6-2.6q2.4-3.2 5.3-5.8c0.1-4.5-2.7-8.8-4.8-12.8q-2.9 4.8-3.9 10.2 0.7 1.4 1.2 2.9c0.6 1.7 1.2 3.6 1.6 5.6-0.1-0.6 0-1.3 0.1-1.8q0-1.6 0-3.1 0.2-3.6 0.6-7.2c0.1-0.2 0.6-0.2 0.6 0q-0.4 3.1-0.6 6.2-0.1 1.5-0.1 3 0 1 0 2 0 0.3 0 0.5 0 0.2 0 0.3zm1.5 9q1.2-0.9 2.3-1.8c1.7-1.5 3.2-3 4.4-4.9q0.6-0.8 1.1-1.8 0-0.1 0-0.3 0.1-0.4 0.5-0.7c1.2-2.7 1.8-5.8 2.5-8.7q-3.1 1.8-5.7 4-0.1 0.3-0.4 0.4-3.6 3.2-6.4 7.3c0.3 1.7 0.3 3.5 0.2 5.1q4.1-4.7 7.5-10.1c0.1-0.2 0.6-0.1 0.5 0.2q-3.6 5.7-8.1 10.7-0.1 1.2-0.4 2.3c0.8-0.6 1.8-1.5 2-1.7zm18.7-8.8q-0.3-0.1-0.6-0.2c-1-0.7-3.2-0.7-4.4-0.6-0.7 0-3.6 0.3-4.4 0.9q0 0.1-0.1 0.1 0 0.1 0 0.1 0 0.1 0 0.2-0.1 0.2-0.2 0.3c-0.7 1.3-1.5 2.6-2.5 3.8q-0.5 0.6-1.1 1.2 3.5-2.4 7.3-4.6c0.1 0 0.6 0 0.4 0.1q-4.7 2.7-9 5.8-1.6 1.4-3.2 2.7-0.1 0-0.1 0.1c4.1-1.2 7.8-3.2 11.5-5.5q1.9-1.3 3.9-2.6 0.7-0.5 1.4-1 0.5-0.4 1.1-0.8z"/>
			</g>
			<g id="&lt;Group&gt;">
				<path id="&lt;Path&gt;" class="s4" d="m125.1 498.8c-1.9-0.3-3.9-0.2-5.7 0.3q-0.4 0.1-0.8 0.2c1.1-2.9 1.7-6 2.5-9.1 0.1-0.5-0.4-1-0.9-0.7q-3.5 1.8-6.4 4.2c-0.4-4.8-3.4-9.2-5.5-13.3-0.3-0.5-0.9-0.5-1.2-0.1q-3 4.7-4.3 10.2-0.7-1-1.5-1.9c-1-1.1-3.4-3.6-5.2-3.2-1.9 0.5-1.1 3.7-1 5.1 0.2 2.5 0.6 5 1.2 7.5-2.6 0.2-5.1 0.9-7.5 2-2.5 1.1-3.3 1.9-1.1 3.9 4.9 4.4 10.4 8.7 17.3 8.8q0 0 0 0 0.1 0.1 0.3 0.1c0.1 0.1 0.4 0.2 0.6 0.1q0.5 0 1.1-0.3c7.7-1.6 14.4-6 20.7-10.5 2.6-1.9-0.6-3-2.6-3.3z"/>
				<path id="&lt;Compound Path&gt;" fill-rule="evenodd" class="s3" d="m127.7 502.1c-6.3 4.5-13 8.9-20.7 10.5q-0.6 0.3-1.1 0.3c-0.2 0.1-0.5 0-0.6-0.1q-0.2 0-0.3-0.1 0 0 0 0c-6.9-0.1-12.4-4.4-17.3-8.8-2.2-2-1.4-2.8 1.1-3.9 2.4-1.1 4.9-1.8 7.5-2-0.6-2.5-1-5-1.2-7.5-0.1-1.4-0.9-4.6 1-5.1 1.8-0.4 4.2 2.1 5.2 3.2q0.8 0.9 1.5 1.9 1.3-5.5 4.3-10.2c0.3-0.4 0.9-0.4 1.2 0.1 2.1 4.1 5.1 8.5 5.5 13.3q2.9-2.4 6.4-4.2c0.5-0.3 1 0.2 0.9 0.7-0.8 3.1-1.4 6.2-2.5 9.1q0.4-0.1 0.8-0.2c1.8-0.5 3.8-0.6 5.7-0.3 2 0.3 5.2 1.4 2.6 3.3zm-24.3 9.2q-1-1.1-1.9-2.3c-3.4-1.4-6.3-3.6-8.7-6.5-0.1-0.1 0.4-0.3 0.5-0.1 2.1 2.5 4.7 4.6 7.6 6-1.9-2.7-3.3-5.7-4.3-8.9q0-0.1 0-0.3c-2.4 0.2-4.7 0.8-6.9 1.8-0.4 0.1-1.3 0.4-1.5 0.7-0.5 0.7-0.3 0.5 0.2 1.1 0.8 1 2.1 1.9 3.2 2.7 3.4 2.9 7.4 5.3 11.8 5.8zm2.2-8.1q0-0.2 0-0.3c-0.3-1.8-0.7-3.5-1.1-5.2-0.6-2.1-1.3-4.2-2.6-6.1-0.8-1.3-3.4-4.9-5.1-4.4-0.9 0.2-0.5 0.9-0.5 1.6q0.1 1.1 0.1 2.2 0.2 1.7 0.5 3.4 0.3 1.9 0.7 3.8 0.1 0.1 0.1 0.2 0.4 1.4 0.9 2.8c1.1 3 2.7 5.8 4.9 8.2q0 0 0 0 0.1 0.1 0.1 0.2 0.8 0.8 1.6 1.6 0.1-0.1 0.2-0.1c-0.2 0-0.3 0-0.3-0.2q-3.2-8.6-5.9-17.4c-0.1-0.2 0.4-0.3 0.5-0.1q2.7 8.7 5.8 17.2c0.6-2.4 0.5-4.9 0.1-7.4zm1.6-2.7q2.4-3.2 5.3-5.8c0.1-4.5-2.7-8.8-4.9-12.7q-2.8 4.7-3.8 10.1 0.7 1.4 1.2 2.9c0.6 1.7 1.2 3.6 1.6 5.6-0.1-0.6 0-1.3 0-1.8q0-1.5 0.1-3.1 0.2-3.6 0.6-7.1c0.1-0.3 0.6-0.3 0.6 0q-0.4 3-0.6 6.1-0.1 1.5-0.1 3.1 0 1 0 2 0 0.2 0 0.5 0 0.1 0 0.2zm1.5 9q1.2-0.8 2.3-1.8c1.6-1.4 3.2-3 4.4-4.8q0.6-0.9 1.1-1.8-0.1-0.2 0-0.4 0.1-0.4 0.5-0.6c1.2-2.8 1.8-5.9 2.5-8.8q-3.1 1.8-5.7 4.1-0.2 0.2-0.4 0.3-3.7 3.2-6.4 7.3c0.2 1.7 0.3 3.5 0.2 5.2q4.1-4.8 7.5-10.1c0.1-0.2 0.6-0.2 0.5 0.1q-3.6 5.7-8.1 10.8-0.1 1.1-0.4 2.2c0.8-0.6 1.8-1.5 2-1.7zm18.7-8.8q-0.3-0.1-0.6-0.1c-1-0.8-3.2-0.8-4.4-0.7-0.7 0-3.6 0.3-4.5 1q0 0 0 0 0 0.1 0 0.2 0 0 0 0.1-0.1 0.2-0.3 0.3c-0.6 1.3-1.4 2.6-2.4 3.8q-0.5 0.7-1.1 1.3 3.5-2.5 7.3-4.6c0.1-0.1 0.6-0.1 0.4 0q-4.7 2.7-9.1 5.9-1.5 1.4-3.1 2.6-0.1 0.1-0.2 0.1c4.1-1.2 7.9-3.2 11.5-5.5q2-1.2 3.9-2.6 0.7-0.5 1.5-1 0.5-0.4 1.1-0.8z"/>
			</g>
			<g id="&lt;Group&gt;">
				<g id="&lt;Group&gt;">
					<path id="&lt;Path&gt;" class="s4" d="m358.2 449.1c-3-0.7-6.2-0.6-9.2 0.2q-0.6 0.1-1.3 0.3c1.9-4.6 3.1-9.6 4.5-14.5 0.2-0.8-0.6-1.7-1.4-1.3q-5.6 2.8-10.5 6.5c-0.4-7.7-5-15-8.3-21.7-0.3-0.7-1.3-0.9-1.8-0.2q-5.1 7.5-7.4 16.2-1-1.6-2.3-3c-1.7-2-5.4-6-8.3-5.4-3.1 0.6-1.9 5.8-1.8 8 0.2 4.1 0.6 8.1 1.5 12.2-4.2 0.2-8.3 1.1-12.1 2.8-4 1.7-5.5 2.9-2 6.2 7.7 7.4 16.3 14.6 27.4 15q0 0 0 0 0.2 0.2 0.4 0.3c0.3 0.2 0.7 0.2 1.1 0.1 0.5 0 1.1-0.2 1.7-0.5 12.5-2 23.5-8.8 33.8-15.8 4.3-2.9-0.8-4.8-4-5.4z"/>
					<path id="&lt;Compound Path&gt;" fill-rule="evenodd" class="s3" d="m362.2 454.5c-10.3 7-21.3 13.8-33.8 15.8-0.6 0.3-1.2 0.5-1.7 0.5-0.4 0.1-0.8 0.1-1.1-0.1q-0.2-0.1-0.4-0.3 0 0 0 0c-11.1-0.4-19.7-7.6-27.4-15-3.5-3.3-2-4.5 2-6.2 3.8-1.7 7.9-2.6 12.1-2.8-0.9-4.1-1.3-8.1-1.5-12.2-0.1-2.2-1.3-7.4 1.8-8 2.9-0.6 6.6 3.4 8.3 5.4q1.3 1.4 2.3 3 2.3-8.7 7.4-16.2c0.5-0.7 1.5-0.5 1.8 0.2 3.3 6.7 7.9 14 8.3 21.7q4.9-3.7 10.5-6.5c0.8-0.4 1.6 0.5 1.4 1.3-1.4 4.9-2.6 9.9-4.5 14.5q0.7-0.2 1.3-0.3c3-0.8 6.2-0.9 9.2-0.2 3.2 0.6 8.3 2.5 4 5.4zm-39.4 13.6q-1.7-1.8-3.1-3.7c-5.3-2.5-9.9-6.2-13.5-10.9-0.2-0.3 0.6-0.5 0.8-0.3 3.2 4.3 7.2 7.7 11.9 10.1-3-4.4-5.1-9.3-6.5-14.5q0-0.2-0.1-0.4c-3.8 0.2-7.6 1-11.1 2.4-0.6 0.3-2.1 0.6-2.5 1.2-0.8 1-0.5 0.7 0.2 1.6 1.3 1.8 3.4 3.3 5 4.7 5.5 4.7 11.7 8.8 18.9 9.8zm3.9-12.9q-0.1-0.2-0.1-0.5c-0.3-2.8-0.9-5.7-1.5-8.3-0.8-3.5-1.9-7-3.8-10.1-1.2-2.1-5.2-8.1-8.1-7.3-1.4 0.3-0.8 1.4-0.8 2.6q0 1.7 0.1 3.5 0.2 2.7 0.5 5.5 0.4 3.1 1.1 6.1 0.1 0.2 0.1 0.4 0.5 2.3 1.2 4.5c1.7 5 4.1 9.6 7.5 13.5q0 0 0.1 0.1c0.1 0 0.1 0.1 0.1 0.2q1.2 1.4 2.6 2.7 0-0.2 0.2-0.2c-0.2 0-0.4-0.1-0.5-0.3q-4.6-14-8.6-28.3c-0.1-0.4 0.7-0.5 0.8-0.1q4 14 8.5 27.9c1.1-3.8 1.1-7.9 0.6-11.9zm2.6-4.3q4-4.9 8.9-9c0.3-7.2-4-14.3-7.2-20.8-3.2 5-5.4 10.4-6.8 16.2q1.1 2.3 1.9 4.7c0.9 2.8 1.7 5.9 2.2 9.1 0-1 0.2-2.1 0.2-2.9q0.1-2.5 0.3-5 0.4-5.7 1.3-11.5c0.1-0.3 1-0.3 0.9 0.1q-0.8 4.9-1.2 9.8-0.2 2.5-0.4 4.9 0 1.7-0.1 3.3 0 0.4 0 0.8 0 0.2 0 0.3zm2 14.7q1.9-1.4 3.8-2.9c2.7-2.2 5.3-4.6 7.4-7.5q1-1.4 1.8-2.9-0.1-0.2 0-0.5c0.1-0.4 0.4-0.8 0.8-1.1 2-4.4 3.2-9.3 4.5-13.9q-5.1 2.7-9.4 6.2c-0.2 0.3-0.4 0.5-0.7 0.5-4 3.4-7.5 7.2-10.6 11.5 0.3 2.8 0.4 5.6 0.1 8.3q6.8-7.5 12.5-15.9c0.2-0.3 1-0.2 0.8 0.2q-6.1 9-13.5 17-0.3 1.8-0.8 3.6c1.3-0.9 3-2.3 3.3-2.6zm30.5-13.3q-0.5-0.2-0.9-0.3c-1.6-1.3-5.1-1.3-7.1-1.3-1 0-5.8 0.4-7.2 1.4q0 0 0 0.1 0 0.1 0 0.2-0.1 0.1-0.1 0.2-0.1 0.3-0.4 0.5c-1.1 2.1-2.4 4.1-4.1 6q-0.9 1-1.9 1.9 5.8-3.8 12-7c0.2-0.1 1-0.1 0.6 0.1q-7.6 4.1-14.8 9-2.5 2.2-5.2 4.1-0.1 0.1-0.2 0.1c6.6-1.7 12.8-4.7 18.7-8.2q3.3-2 6.4-4.1 1.2-0.7 2.4-1.5 0.9-0.6 1.8-1.2z"/>
				</g>
				<g id="&lt;Group&gt;">
					<path id="&lt;Path&gt;" class="s4" d="m329.7 444.1c-2.5 0.4-4.9 1.3-6.9 2.7q-0.4 0.3-0.9 0.6c0.2-4-0.3-8-0.6-12.1 0-0.6-0.9-1.1-1.4-0.5q-3.5 3.5-6.1 7.7c-2.4-5.7-7.8-9.8-12.1-14-0.4-0.4-1.2-0.2-1.4 0.4q-1.8 7-1.1 14.2-1.2-1-2.5-1.7c-1.8-1-5.7-3-7.7-1.8-2.2 1.3 0.2 4.9 0.8 6.5 1.3 3 2.7 6 4.5 8.7-3.1 1.4-5.9 3.1-8.3 5.4-2.5 2.4-3.3 3.7 0.3 5.3 7.7 3.3 16.1 6.4 24.5 3.6q0 0 0.1 0 0.2 0.1 0.3 0.1c0.3 0.1 0.6 0 0.9-0.2q0.6-0.2 1.1-0.8c8.8-5 15.2-13.1 20.9-21.1 2.4-3.4-1.9-3.4-4.4-3z"/>
					<path id="&lt;Compound Path&gt;" fill-rule="evenodd" class="s3" d="m334.1 447.1c-5.7 8-12.1 16.1-20.9 21.1q-0.5 0.6-1.1 0.8c-0.3 0.2-0.6 0.3-0.9 0.2q-0.1 0-0.3-0.1-0.1 0-0.1 0c-8.4 2.8-16.8-0.3-24.5-3.6-3.6-1.6-2.8-2.9-0.3-5.3 2.4-2.3 5.2-4 8.3-5.4-1.8-2.7-3.2-5.7-4.5-8.7-0.7-1.6-3-5.2-0.8-6.5 2-1.2 5.9 0.8 7.7 1.8q1.3 0.7 2.5 1.7-0.7-7.2 1.1-14.2c0.2-0.6 1-0.8 1.4-0.4 4.3 4.2 9.7 8.3 12.1 14q2.6-4.2 6.1-7.7c0.5-0.6 1.4-0.1 1.4 0.5 0.3 4.1 0.8 8.1 0.6 12.1q0.5-0.3 0.9-0.6c2-1.4 4.4-2.3 6.9-2.7 2.5-0.4 6.8-0.4 4.4 3zm-25.7 21q-1.7-0.9-3.3-1.9c-4.7-0.5-9.2-2-13.1-4.5-0.3-0.1 0.3-0.5 0.5-0.4 3.6 2.3 7.5 3.7 11.7 4.3-3.5-2.5-6.4-5.6-8.8-9.1q-0.1-0.1-0.2-0.3c-2.8 1.2-5.4 2.8-7.7 4.9-0.4 0.4-1.4 1-1.5 1.6-0.3 1-0.2 0.6 0.6 1.1 1.5 1 3.4 1.5 5 2.1 5.4 2.1 11.1 3.4 16.8 2.2zm-0.6-10.8q-0.2-0.1-0.2-0.3c-1-2-2.3-4-3.4-5.8-1.6-2.4-3.4-4.7-5.6-6.5-1.5-1.2-6.1-4.6-8.1-3.2-0.9 0.6-0.2 1.3 0.1 2.2q0.5 1.2 1.1 2.5 0.8 2 1.8 4 1.2 2.2 2.5 4.3 0.1 0.1 0.2 0.3 1 1.5 2.2 3c2.6 3.2 5.7 6 9.3 8q0 0 0 0 0.2 0 0.2 0.1 1.3 0.8 2.6 1.3 0.1-0.1 0.1-0.2c-0.1 0.1-0.3 0.1-0.4 0q-7.3-9.2-14.2-18.8c-0.2-0.3 0.4-0.6 0.6-0.3q6.8 9.4 14 18.5c-0.2-3.1-1.4-6.2-2.8-9.1zm0.8-3.9q1.6-4.8 4.1-9.1c-1.7-5.5-6.9-9.7-11.1-13.6-1 4.6-1.2 9.3-0.6 14q1.5 1.4 2.7 2.9c1.4 1.9 2.9 4 4.2 6.2-0.3-0.7-0.5-1.6-0.7-2.2q-0.6-1.9-1.1-3.8-1.3-4.4-2.2-8.9c-0.1-0.3 0.6-0.6 0.6-0.2q0.8 3.9 1.8 7.7 0.6 1.9 1.1 3.7 0.4 1.3 0.8 2.5 0.2 0.3 0.3 0.6 0 0.1 0.1 0.2zm5.5 10.4q1-1.5 2-3.1c1.4-2.4 2.7-5 3.5-7.7q0.3-1.3 0.5-2.6-0.1-0.2-0.1-0.4 0-0.6 0.3-1c0.3-3.9-0.2-7.9-0.5-11.7q-3 3.4-5.3 7.2c0 0.3-0.2 0.5-0.4 0.6q-3.1 5.4-4.7 11.5c1 2 1.8 4.1 2.3 6.2q3.1-7.5 5-15.3c0.1-0.3 0.7-0.5 0.6-0.1q-2 8.4-5.4 16.4 0.3 1.4 0.4 2.9c0.7-1 1.6-2.6 1.8-2.9zm19.1-18.3q-0.4 0-0.8 0.1c-1.5-0.5-4.1 0.4-5.6 0.9-0.8 0.3-4.2 1.9-5 3q0 0.1 0 0.1 0 0.1 0 0.2 0.1 0.1 0.1 0.1 0 0.3-0.2 0.5c-0.2 1.9-0.7 3.8-1.4 5.6q-0.4 1-0.9 2 3.3-4.4 7-8.5c0.1-0.2 0.8-0.4 0.5-0.1q-4.6 5.1-8.6 10.8-1.3 2.3-2.8 4.5 0 0-0.1 0.1c4.5-3.1 8.3-7.1 11.8-11.3q1.9-2.4 3.6-4.8 0.7-0.9 1.4-1.8 0.5-0.7 1-1.4z"/>
				</g>
			</g>
		</g>
	</g>
</svg>
