<svg id="SvgjsSvg1634" width="360" height="360" xmlns="http://www.w3.org/2000/svg" version="1.1">
    <g id="surrender">
        <svg xmlns="http://www.w3.org/2000/svg" viewBox="0 0 1000 1000" width="360" height="360">
            <path fill="#ccd2d6"
                  d="m529.53,557.85c-4.4,9.07-2.35,11.81-.88,21.43,1.47,9.62-1.17,15.11-1.17,18.13,0,.67-.06,3.24-.15,6.86h-87.41c.82-10,1.28-19.63.17-21.14-2.42-3.3-16.95-35.44-22.67-53.37-5.73-17.92-4.63-24.31-1.1-31.94,3.52-7.62,8.14-10.71,8.14-10.71,0,0-.94-11.13,2.61-19.16,3.55-8.04,9.72-10.1,9.72-10.1,0,0-3.74-8.24,1.98-21.01,5.72-12.78,13.65-11.75,13.65-11.75,0,0-11.23-59.13-.88-67.17,10.34-8.03,10.56-2.47,16.06,13.19,5.51,15.66,15.19,44.71,15.19,44.71,0,0,16.81-28.3,25.02-24.45,8.22,3.85.88,29.12,4.11,36.26,3.23,7.15,17.02,28.3,22.31,63.74,5.28,35.44-.3,57.42-4.7,66.48Z"
                  opacity=".5" class="svgShape colorccd2d6-0 selectable"></path>
            <path fill="#ccd2d6"
                  d="m530.26,607.27h-93.59l.27-3.25c1.24-15.12.75-18.64.57-19.37-3.21-4.85-17.34-36.46-22.93-53.98-5.82-18.2-4.95-25.5-.96-34.11,2.65-5.75,5.94-9.2,7.78-10.82-.13-3.55-.07-12.18,2.95-19,2.55-5.77,6.34-8.89,8.87-10.43-.84-3.77-1.45-11.14,2.83-20.69,4.05-9.04,9.33-12.09,12.88-13.08-.91-5.21-2.7-16.26-3.8-27.73-2.86-29.77,1.25-36.66,4.59-39.26,3.5-2.72,7.23-5.09,10.78-4.02,4.07,1.22,5.66,5.93,8.29,13.71.5,1.49,1.05,3.12,1.67,4.87,3.94,11.2,10.07,29.42,13.21,38.78,1.67-2.51,3.84-5.6,6.23-8.61,8.14-10.27,14.25-13.96,19.21-11.63,6.8,3.19,6.06,14.03,5.35,24.52-.35,5.19-.75,11.07.22,13.22.5,1.11,1.3,2.64,2.32,4.57,5.11,9.71,15.74,29.91,20.22,59.96,6.13,41.18-2.25,62.64-4.97,68.23h0c-3.09,6.37-2.63,8.76-1.52,14.53.29,1.48.61,3.17.91,5.14,1.11,7.28.04,12.4-.67,15.79-.25,1.18-.46,2.21-.46,2.8,0,.7-.06,3.17-.15,6.93l-.07,2.93Zm-87.09-6h81.24c.04-1.9.08-3.41.08-3.86,0-1.21.27-2.52.59-4.03.66-3.14,1.56-7.44.61-13.65-.28-1.85-.6-3.48-.87-4.91-1.17-6.09-1.94-10.12,2.02-18.28h0c5.21-10.72,9.1-33.36,4.43-64.73-4.34-29.04-14.65-48.64-19.6-58.06-1.06-2.02-1.9-3.62-2.48-4.89-1.6-3.53-1.2-9.36-.74-16.1.47-6.86,1.18-17.23-1.91-18.68-2.96-1.38-13.24,9.92-21.17,23.27l-3.35,5.64-2.07-6.22c-.1-.29-9.74-29.21-15.17-44.66-.62-1.78-1.18-3.43-1.69-4.94-1.44-4.26-3.23-9.56-4.33-9.89-.04-.02-1.11-.29-5.37,3.01-1.21.94-4.96,6.17-2.3,33.91,1.48,15.47,4.26,30.19,4.29,30.33l.77,4.07-4.11-.53c-.17-.02-5.9-.33-10.53,10-5.02,11.22-2.1,18.28-1.97,18.57l1.29,3-3.08,1.06c-.18.06-5.01,1.85-7.93,8.47-3.2,7.25-2.37,17.59-2.37,17.7l.15,1.76-1.47.98s-4.01,2.82-7.08,9.47c-2.96,6.4-4.47,11.92,1.23,29.77,5.85,18.33,20.29,49.86,22.23,52.51.82,1.12,1.94,2.63.66,19.91Zm-5.5-16.37s0,0,0,0c0,0,0,0,0,0Zm-.2-.36h0s0,0,0,0Z"
                  class="svgShape colorccd2d6-1 selectable"></path>
            <path fill="#ccd2d6"
                  d="M504.46 261.02l-19.68 177.73c-6.4-6.92-13.52-9.29-17.16-10.08l18.13-173.22c10.93 2.42 18.71 5.58 18.71 5.58zM524.66 78.15c0 .32-.02.66-.05.99l-.58 5.19s-7.91-3.92-19.73-6.22l.09-.87c.51-4.87 4.88-8.58 10.1-8.58 5.66 0 10.16 4.31 10.16 9.49z"
                  class="svgShape colorccd2d6-2 selectable"></path>
            <path fill="#ccd2d6"
                  d="m521.31,84.33l-19.57,176.69s-7.78-3.16-18.71-5.58c-16.1-3.57-39.03-5.54-53.97,6.48-25.1,20.19-57.24,29.25-95.97,17.31-38.74-11.95-110.06,25.55-110.06,25.55l6.6-169.37s44.46-32.55,102.14-21.43c57.67,11.13,78.36.82,113.14-24.73,19.61-14.41,41.41-14.13,56.68-11.15,11.81,2.3,19.73,6.22,19.73,6.22Z"
                  opacity=".25" class="svgShape colorccd2d6-3 selectable"></path>
            <path fill="#ccd2d6"
                  d="m219.82,309.86l6.86-176.01,1.17-.86c1.86-1.36,46.19-33.2,104.48-21.95,56.08,10.82,75.88,1.45,110.79-24.2,20.61-15.15,43.48-14.71,59.03-11.68,12.07,2.35,20.15,6.31,20.48,6.48l1.88.93-20.24,182.72-3.67-1.49c-.08-.03-7.7-3.1-18.23-5.43-15.78-3.5-37.52-5.31-51.44,5.89-28.38,22.84-62.53,29-98.74,17.84-37.11-11.45-107.08,24.97-107.78,25.34l-4.6,2.42Zm12.74-172.82l-6.35,162.78c16.62-8.15,73.58-33.99,107.75-23.45,34.71,10.7,66.07,5.05,93.21-16.78,15.78-12.7,39.43-10.85,56.5-7.07,6.65,1.47,12.12,3.2,15.5,4.37l18.91-170.71c-2.94-1.24-9.12-3.57-17.08-5.12-14.38-2.8-35.47-3.23-54.33,10.63-35.63,26.18-57.32,36.48-115.48,25.25-50.59-9.76-91.32,15.24-98.63,20.1Z"
                  class="svgShape colorccd2d6-4 selectable"></path>
            <path fill="#ccd2d6"
                  d="M334.4 273.58c-1.66 0-3-1.34-3-3V119.76c0-1.66 1.34-3 3-3s3 1.34 3 3v150.82c0 1.66-1.34 3-3 3zM322.96 246.8c-.11 0-.21 0-.32-.02-1.65-.18-2.84-1.65-2.67-3.3l3.52-32.97c.18-1.65 1.65-2.84 3.3-2.66 1.65.18 2.84 1.65 2.67 3.3l-3.52 32.97c-.17 1.54-1.47 2.68-2.98 2.68zM406.6 237.32s-.07 0-.1 0c-1.66-.05-2.96-1.44-2.9-3.09l3.52-109.61c.05-1.66 1.42-2.96 3.09-2.9 1.66.05 2.96 1.44 2.9 3.09l-3.52 109.61c-.05 1.62-1.38 2.9-3 2.9z"
                  class="svgShape colorccd2d6-5 selectable"></path>
            <g>
                <path fill="#ccd2d6"
                      d="m478.49,543.35c-.35,0-.71,0-1.05,0-3.79-.06-7.86-.21-12.45-.45-3.28-.18-6.24-.41-9.15-1.46-4.19-1.51-6.62-4.92-5.91-8.28.49-2.3,2.37-4.19,4.95-4.99l-2.47-3.47s-.02-.03-.03-.05c-.07,0-.14,0-.19,0l-17.52-.82c-1.65-.08-2.93-1.48-2.86-3.14.08-1.65,1.48-2.92,3.14-2.86l17.52.82c.68.03,1.81.08,2.91.7,1,.57,1.58,1.38,1.93,1.87l9.3,13.06-6.38-.48c-1.24-.09-2.51-.19-3.47.07-.46.12-.79.36-.91.5.16.3.84.98,2.04,1.41,2.15.78,4.54.96,7.44,1.11,4.51.24,8.51.39,12.22.44,2.9.04,6.16-.04,7.98-1.58,2.08-1.77,1.83-5.23.99-7.66-.55-1.58-1.35-3.13-2.2-4.78-.99-1.91-2-3.89-2.7-6.07l-2.01-6.28,6.05,2.61c2.6,1.12,5.92.83,8.24-.72,2.23-1.49,3.56-4.18,3.29-6.68-.23-2.19-1.57-4.43-2.81-6.36-3.82-5.94-8.41-11.62-12.86-17.11l-6.26-7.73,9.49,2.98c2.96.93,6.42.54,9.04-1.02,2.56-1.52,4.36-4.18,4.71-6.96.44-3.55-1.31-7.35-3.08-10.6-3.22-5.92-7.17-11.5-11.73-16.6-1.46-1.25-15.92-13.25-31.54-14.72-1.65-.15-2.86-1.62-2.71-3.27.15-1.65,1.62-2.87,3.27-2.71,18.37,1.72,34.4,15.7,35.07,16.29l.25.24c4.93,5.48,9.19,11.5,12.66,17.88,2.23,4.08,4.41,8.97,3.76,14.21-.58,4.64-3.42,8.89-7.59,11.37-1.94,1.15-4.12,1.89-6.37,2.2,3.13,3.95,6.2,8.02,8.93,12.28,1.61,2.51,3.36,5.47,3.73,8.97.5,4.74-1.82,9.57-5.92,12.31-2.26,1.51-4.99,2.32-7.74,2.4.05.11.11.21.17.32.91,1.76,1.84,3.57,2.53,5.55,1.54,4.42,1.62,10.47-2.77,14.2-3.11,2.64-7.18,3.02-10.9,3.02Zm-25.83-18.67h0,0Z"
                      class="svgShape colorccd2d6-7 selectable"></path>
                <path fill="#ccd2d6"
                      d="M483.83 483.83c-.9 0-1.8-.41-2.39-1.18-.1-.13-10.16-13.24-21.95-21.52-10.46-7.34-20.66-1.03-21.09-.75-1.39.88-3.25.48-4.14-.91-.89-1.39-.5-3.24.89-4.13.56-.36 13.96-8.82 27.79.89 12.56 8.82 22.84 22.23 23.27 22.79 1 1.32.75 3.2-.57 4.2-.54.41-1.18.61-1.82.61zM484.45 519.34c-.76 0-1.51-.28-2.1-.85-.22-.21-21.91-21.31-35.13-27.2-12.47-5.56-21.41-1.51-21.5-1.47-1.5.7-3.29.05-3.99-1.45-.7-1.5-.06-3.29 1.45-3.99.46-.22 11.54-5.24 26.49 1.42 14.2 6.33 35.96 27.49 36.88 28.38 1.19 1.16 1.21 3.06.05 4.24-.59.6-1.37.9-2.15.9zM457.48 608.58c-.79 0-1.57-.31-2.16-.92-6.23-6.46-16.8-20.92-17.25-21.53-.98-1.34-.68-3.21.65-4.19 1.34-.98 3.21-.68 4.19.65.11.15 10.77 14.74 16.72 20.9 1.15 1.19 1.12 3.09-.08 4.24-.58.56-1.33.84-2.08.84z"
                      class="svgShape colorccd2d6-8 selectable"></path>
            </g>
            <g>
                <path fill="#ccd2d6"
                      d="m767.96,604.27c-3.38,1.36-6.96,3.31-10.83,5.98-16.42,11.36-12.15,27.35-5.05,39.92H158.52c-4.82,0-8.71-3.65-8.71-8.15v-29.6c0-4.51,3.89-8.15,8.71-8.15h609.44Z"
                      opacity=".25" class="svgShape colorccd2d6-10 selectable"></path>
                <path fill="#ccd2d6"
                      d="m757.22,653.17H158.52c-6.46,0-11.71-5-11.71-11.15v-29.6c0-6.15,5.25-11.15,11.71-11.15h624.93l-14.37,5.78c-3.28,1.32-6.63,3.17-10.25,5.67-11.83,8.19-13.19,19.96-4.14,35.97l2.53,4.48Zm-598.7-45.9c-3.15,0-5.71,2.31-5.71,5.15v29.6c0,2.84,2.56,5.15,5.71,5.15h588.63c-9.82-20.84-1.15-32.87,8.28-39.39.25-.17.5-.35.75-.51H158.52Z"
                      class="svgShape colorccd2d6-11 selectable"></path>
                <path fill="#ccd2d6"
                      d="m824.78,608.83c-1.18.02-2.39.09-3.66.23-9.13,1-16.77-2.25-24.78-4.8h20.62c3.44,0,6.4,1.86,7.82,4.56Z"
                      opacity=".25" class="svgShape colorccd2d6-12 selectable"></path>
                <path fill="#ccd2d6"
                      d="m817.71,612.25c-6.85,0-12.89-2.01-18.77-3.97-1.17-.39-2.33-.78-3.51-1.15l-18.44-5.86h39.96c4.47,0,8.48,2.37,10.47,6.17l2.24,4.29-4.84.1c-1.18.02-2.29.09-3.39.21-1.27.14-2.52.2-3.74.2Z"
                      class="svgShape colorccd2d6-13 selectable"></path>
                <rect width="59.41" height="20.94" x="228.66" y="910.4" fill="#ccd2d6"
                      class="svgShape colorccd2d6-14 selectable"></rect>
                <rect width="59.41" height="20.94" x="689.19" y="910.4" fill="#ccd2d6"
                      class="svgShape colorccd2d6-15 selectable"></rect>
                <path fill="#ccd2d6"
                      d="m765.37,669.55c-.57-1.9-7.78-9.62-13.29-19.38H176.27l10.91,54.18c3.29.63,6.77,3.02,10.57,7.89,12.03,15.42,19.64-2.37,31.04,15.42,11.4,17.79,10.14,16.61,12.67,40.32,2.53,23.72,11.4,34.99-5.69,40.32-17.11,5.34-15.89-9.19-29.17-7.55l22.07,109.65h518.14l21.96-109.08-53.01,24.41-3.98,30.8c-.88,6.81-8.36,11.74-16.72,11.03-8.35-.72-14.4-6.82-13.52-13.63l5.66-43.81h0c-16.5-19.46-35.42-51.84-23.81-89.86l37.65-17.33,1.64-12.66c.88-6.81,8.36-11.75,16.71-11.03.24.02.47.05.69.08.05,0,.09,0,.12.01.2.02.42.05.62.09.24.03.47.08.69.13.17.03.32.07.48.1.17.03.35.08.51.13.12.03.25.07.37.1.27.08.55.16.82.26.16.06.32.12.48.17.32.13.65.26.96.39.1.03.19.08.27.13.26.13.52.26.77.39.26.13.51.27.74.43.15.09.3.19.43.28.15.09.3.19.43.29.26.19.52.38.77.59.05.02.09.06.12.1.24.2.47.41.69.62.25.23.48.48.71.73.24.26.46.52.66.8.12.16.24.31.35.48.33.49.63,1,.88,1.52.06.14.12.27.19.41.01.03.02.08.05.13.07.16.14.34.2.51.04.1.07.22.11.33l.48-.22s33,51.6,45.36,63.15c.14.13.26.24.4.36l14.13-70.18c-12.9-.12-23.86.16-27.52-12.01Zm-472.91,191.19c-.2.33-.42.65-.66.98-6.89,4.59-9.06,5.49-10.64,5.76-.25.03-.48.06-.73.08-8.35.71-15.83-4.23-16.71-11.03l-21.14-163.67c-.06-.44-.09-.88-.09-1.31l2.05-6.18.57-.75c7.51-4.41,9.35-5.14,10.53-5.32.15-.02.31-.05.47-.06,8.35-.72,15.83,4.23,16.71,11.03l21.14,163.66c.06.44.09.88.09,1.31l-1.59,5.5Zm87.02,0c-.2.33-.42.65-.66.98-6.89,4.59-9.06,5.49-10.64,5.76-.24.03-.47.06-.72.08-8.36.71-15.84-4.23-16.72-11.03l-21.14-163.67c-.06-.44-.09-.88-.09-1.31l2.05-6.18.57-.75c7.51-4.41,9.35-5.14,10.53-5.32.15-.02.31-.05.47-.06,8.35-.72,15.83,4.23,16.71,11.03l21.14,163.66c.06.44.09.88.09,1.31l-1.59,5.5Zm82.56-4.83c-.09.75-.72,2.18-5.25,9.08-.36.26-.73.49-1.12.72l-1.41.72-2.41.89-2.88.56c-.5.06-1,.09-1.51.12-8.39.28-15.47-5.04-15.82-11.88l-8.24-164.44c-.35-6.84,6.18-12.61,14.57-12.89,8.4-.28,15.47,5.04,15.82,11.88l8.25,164.44c.01.17.01.34.01.5,0,.1,0,.2-.01.3Zm81.79.21c-.33,6.84-7.42,12.16-15.81,11.88-8.4-.28-14.92-6.05-14.58-12.89l8.25-164.44c.33-6.84,7.42-12.16,15.82-11.88,8.39.28,14.91,6.05,14.56,12.89l-8.25,164.44Zm102.07-163.26l-21.14,163.67c-.88,6.81-8.37,11.74-16.72,11.03-8.35-.72-14.4-6.82-13.52-13.63l21.13-163.66c.88-6.81,8.37-11.75,16.72-11.03,8.35.72,14.4,6.82,13.54,13.62Z"
                      opacity=".5" class="svgShape colorccd2d6-16 selectable"></path>
                <path fill="#ccd2d6"
                      d="m749.26,913.4H226.21l-23.19-115.23,3.21-.4c7.19-.88,11.12,2.33,14.28,4.91,3.58,2.93,6.42,5.24,14.36,2.76,9.58-2.99,9.24-6.72,6.39-20.51-.99-4.78-2.1-10.21-2.79-16.63-.27-2.53-.5-4.78-.7-6.8-1.68-16.61-1.71-16.92-11.51-32.21-4.94-7.71-8.35-7.49-13.05-7.19-4.92.31-11.04.7-17.83-8-3.11-3.98-6.06-6.27-8.77-6.79l-1.98-.38-12.03-59.75h581.22l.86,1.53c3.19,5.66,6.95,10.57,9.69,14.16,2.47,3.23,3.48,4.59,3.86,5.83h0c2.78,9.24,10.37,9.75,23.54,9.86l4.76.04-15.85,78.72-3.88-3.3c-.17-.15-.33-.29-.5-.46-11.16-10.44-37.9-51.43-44.42-61.53l-1.1.5-1.2-3.39c-.04-.11-.06-.19-.1-.27-.04-.09-.08-.18-.11-.27l-.15-.33c-.14-.29-.36-.67-.61-1.03-.08-.12-.17-.23-.26-.35l-.06-.08c-.13-.18-.27-.35-.42-.51-.21-.23-.37-.41-.55-.57-.15-.14-.32-.29-.48-.43l-.33-.27c-.16-.13-.32-.25-.48-.37-.13-.09-.2-.13-.26-.17l-.11-.07c-.1-.07-.22-.14-.33-.21l-.13-.08c-.11-.08-.23-.14-.36-.2l-.15-.08c-.19-.11-.4-.21-.6-.31l-.2-.09c-.26-.12-.54-.22-.81-.33l-.4-.14c-.17-.06-.39-.12-.6-.19l-.41-.11c-.09-.03-.18-.05-.27-.07l-.48-.1c-.2-.04-.37-.08-.54-.1l-.26-.05c-.06-.01-.13-.02-.21-.02l-.31-.04c-.17-.03-.35-.04-.53-.06-6.72-.57-12.76,3.2-13.44,8.43l-1.85,14.3-37.92,17.45c-10.28,35.7,7.1,66.29,23.61,85.75l.71.84-.02,1.5-5.66,43.81c-.34,2.6.78,4.61,1.77,5.84,2,2.49,5.3,4.1,9.04,4.42,6.76.58,12.82-3.21,13.49-8.43l4.2-32.44,59.88-27.57-23.61,117.27Zm-518.14-6h513.23l20.31-100.88-46.14,21.25-3.77,29.15c-1.08,8.36-10.04,14.47-19.95,13.64-5.37-.46-10.17-2.88-13.2-6.63-2.44-3.03-3.52-6.71-3.05-10.37l5.49-42.52c-17.41-20.88-35.21-53.43-23.53-91.65l.39-1.29,37.37-17.19,1.42-11.01c1.08-8.37,10.04-14.47,19.94-13.64.26.03.49.05.71.08.09,0,.19.02.31.04.24.03.48.06.7.11.26.04.52.09.77.14.11.02.25.05.38.08l.12.03c.2.04.45.1.69.17l.49.14c.28.08.56.17.84.27l.62.23c.35.14.68.27.99.41.18.07.35.15.52.24.24.12.51.25.78.4.36.18.69.37.99.57.15.09.29.18.43.27.22.14.43.28.62.42.21.15.47.34.73.55.14.1.28.22.41.34.23.2.46.4.68.61.32.3.63.62.91.95.28.31.56.65.81,1,.15.19.28.37.41.56.14.21.28.42.41.63l.15-.07,1.4,2.19c.3.47,27.62,43.12,41.42,58.92l12.28-61c-11.47-.15-22.77-1.12-26.7-14.02-.3-.6-1.68-2.41-2.91-4.01-2.46-3.22-6.07-7.94-9.27-13.33H179.93l9.82,48.79c3.52,1.25,6.92,4.03,10.36,8.44,4.84,6.2,8.32,5.98,12.71,5.7,5.19-.33,11.64-.74,18.49,9.94,10.57,16.5,10.71,17.88,12.43,34.85.2,2.01.43,4.25.7,6.77.65,6.14,1.74,11.41,2.7,16.06,2.62,12.69,4.68,22.72-10.48,27.45-11.02,3.44-15.97-.59-19.94-3.84-2.16-1.76-3.88-3.17-6.46-3.58l20.86,103.66Zm488.17-225.21s.08.03.13.04l-.13-.04Zm43.2-11.78v.03s0-.02,0-.03h0Z"
                      class="svgShape colorccd2d6-17 selectable"></path>
                <path fill="#ccd2d6"
                      d="M278.87 870.63c-9.19 0-17.12-5.87-18.14-13.71l-21.14-163.67c-.07-.52-.11-1.1-.11-1.7v-.48l2.36-7.11 1.23-1.62.51-.3c7.75-4.55 9.84-5.44 11.62-5.7.2-.03.45-.07.69-.08 9.88-.84 18.82 5.26 19.9 13.64l21.14 163.66c.07.52.11 1.1.11 1.7v.42l-1.82 6.3-.21.35c-.24.39-.51.78-.79 1.17l-.32.43-.45.3c-7.15 4.76-9.66 5.86-11.81 6.22-.38.05-.66.08-.95.11-.61.05-1.23.08-1.83.08zm-33.38-178.63c0 .16.02.31.04.45l21.14 163.7c.67 5.22 6.72 9.02 13.48 8.43.18-.02.37-.04.58-.06.9-.15 2.75-.88 8.92-4.98 0-.01.02-.03.03-.04l1.34-4.64c0-.18-.03-.35-.05-.51l-21.14-163.69c-.68-5.23-6.73-9.02-13.48-8.43-.12 0-.19.02-.26.03-.95.14-3.78 1.6-8.9 4.6l-1.7 5.13zm46.96 168.75h0 0zM365.9 870.63c-9.19 0-17.13-5.87-18.15-13.71l-21.14-163.67c-.07-.51-.11-1.1-.11-1.7v-.48l2.36-7.11 1.23-1.62.51-.3c7.75-4.55 9.84-5.44 11.62-5.7.2-.03.44-.07.69-.08 9.88-.85 18.82 5.27 19.91 13.64l21.14 163.66c.07.51.11 1.09.11 1.7v.42l-1.82 6.3-.21.34c-.24.39-.51.78-.79 1.17l-.32.44-.45.3c-7.15 4.76-9.67 5.86-11.81 6.22-.35.05-.64.08-.94.11-.61.05-1.23.08-1.83.08zm-33.39-178.63c0 .16.02.31.04.45l21.14 163.71c.68 5.22 6.71 9 13.5 8.43.17-.02.36-.03.54-.06.92-.16 2.77-.89 8.94-4.98 0-.01.02-.03.02-.04l1.34-4.65c0-.18-.03-.34-.05-.5l-21.14-163.69c-.68-5.23-6.74-9.02-13.48-8.43-.12 0-.19.02-.26.03-.96.14-3.78 1.61-8.91 4.6l-1.7 5.13zm46.96 168.75h0 0zM446.87 871.01c-9.72 0-17.81-6.49-18.23-14.74l-8.24-164.44c-.19-3.65 1.17-7.25 3.8-10.12 3.3-3.58 8.27-5.74 13.66-5.92 10-.37 18.48 6.27 18.91 14.72l8.25 164.44c.01.19.02.42.02.65s0 .42-.03.64h0c-.16 1.42-.75 2.83-5.72 10.39l-.31.47-.46.33c-.42.3-.85.57-1.3.84l-.19.11-1.73.86-2.88 1.03-3.1.59c-.56.07-1.14.11-1.72.13-.24 0-.49.01-.73.01zm-8.27-189.22c-.18 0-.35 0-.53 0-3.78.13-7.22 1.58-9.44 3.99-1.09 1.19-2.36 3.15-2.23 5.75l8.24 164.44c.26 5.2 5.96 9.26 12.72 9.03.37-.02.77-.04 1.16-.09l2.52-.49 2.01-.75 1.16-.59c.13-.08.27-.16.4-.25 3.37-5.15 4.24-6.79 4.44-7.31 0-.08 0-.15 0-.22l-8.25-164.49c-.26-5.07-5.67-9.04-12.19-9.04zm23.43 174.13h0 0zM528.65 871.01c-.24 0-.48 0-.72-.01-5.39-.18-10.37-2.34-13.67-5.93-2.64-2.87-3.99-6.46-3.8-10.12l8.25-164.43c.4-8.25 8.49-14.74 18.19-14.74.24 0 .48 0 .72.01 5.38.18 10.36 2.34 13.66 5.92 2.64 2.87 3.99 6.46 3.81 10.12l-8.25 164.43c-.41 8.25-8.49 14.74-18.18 14.74zm8.23-189.23c-6.52 0-11.94 3.97-12.19 9.04l-8.25 164.44c-.13 2.61 1.14 4.57 2.23 5.75 2.21 2.41 5.66 3.86 9.45 3.99 6.75.21 12.46-3.83 12.71-9.03h0s8.25-164.44 8.25-164.44c.13-2.61-1.14-4.57-2.23-5.75-2.21-2.41-5.65-3.86-9.44-3.99-.18 0-.36 0-.54 0zM609.6 870.63c-.6 0-1.21-.03-1.83-.08-5.37-.46-10.17-2.88-13.2-6.63-2.44-3.03-3.52-6.71-3.05-10.37l21.13-163.66c1.08-8.38 10.04-14.49 19.96-13.64 5.36.46 10.17 2.88 13.19 6.63 2.44 3.02 3.53 6.7 3.06 10.36h0s-21.14 163.67-21.14 163.67c-1.02 7.84-8.96 13.71-18.13 13.71zm21.12-188.46c-6.19 0-11.48 3.61-12.12 8.49l-21.13 163.66c-.34 2.6.78 4.61 1.77 5.84 2 2.49 5.3 4.1 9.04 4.42 6.76.58 12.81-3.21 13.49-8.43l21.14-163.67c.33-2.59-.78-4.6-1.78-5.83-2.01-2.49-5.3-4.1-9.04-4.42-.46-.04-.92-.06-1.38-.06zm15.17 10.69h0 0z"
                      class="svgShape colorccd2d6-18 selectable"></path>
                <g opacity=".75">
                    <path fill="#ccd2d6"
                          d="M272.82 690.27c-.88-6.81-8.36-11.75-16.72-11.03h0c-8.35.72-14.41 6.82-13.53 13.62l21.14 163.67c.88 6.81 8.36 11.75 16.72 11.03h0c8.35-.72 14.41-6.82 13.53-13.62l-21.14-163.67zM359.84 690.27c-.88-6.81-8.36-11.75-16.72-11.03h0c-8.35.72-14.41 6.82-13.53 13.62l21.14 163.67c.88 6.81 8.36 11.75 16.72 11.03h0c8.35-.72 14.41-6.82 13.53-13.62l-21.14-163.67zM437.97 678.8c-8.39.28-14.92 6.05-14.57 12.89l8.25 164.43c.34 6.84 7.42 12.16 15.82 11.88h0c8.39-.28 14.92-6.05 14.57-12.89l-8.25-164.43c-.34-6.84-7.42-12.16-15.82-11.88zM707.22 829.66l8.54-3.93-3.98 30.8c-.88 6.81-8.36 11.74-16.72 11.03-8.35-.72-14.4-6.82-13.52-13.63l5.66-43.81c10.52 12.4 20.04 19.54 20.04 19.54zM732.4 688.12c.04.1.07.22.11.33l-31.49 14.48 1.64-12.66c.88-6.81 8.36-11.75 16.71-11.03.24.02.47.05.69.08.05 0 .09 0 .12.01.21.02.42.06.62.09.24.03.47.08.69.13.17.03.32.07.48.1.17.03.35.08.51.13.12.03.25.07.37.1.27.08.55.16.82.26.16.06.32.12.48.17.32.13.65.26.96.39.1.03.19.08.27.13.26.13.52.26.77.39.26.13.51.27.74.43.15.09.3.19.43.28.15.09.3.19.43.29.26.19.52.38.77.59.05.02.09.06.12.1.24.2.47.41.69.62.25.23.48.48.71.73.24.26.46.52.66.8.12.16.24.31.35.48.33.49.63 1 .88 1.52.06.14.12.27.19.41.01.03.02.08.05.13.07.16.14.34.2.51zM632.36 679.24c-8.35-.72-15.84 4.22-16.72 11.03l-21.14 163.67c-.88 6.81 5.18 12.91 13.53 13.62 8.35.72 15.84-4.22 16.72-11.03l21.14-163.67c.88-6.81-5.18-12.91-13.53-13.62zM537.51 678.8h0c-8.39-.28-15.47 5.04-15.82 11.88l-8.25 164.43c-.34 6.84 6.18 12.61 14.57 12.89 8.39.28 15.47-5.04 15.82-11.88l8.25-164.43c.34-6.84-6.18-12.61-14.57-12.89z"
                          class="svgShape colorccd2d6-20 selectable"></path>
                </g>
            </g>
            <g opacity=".5">
                <path fill="#ccd2d6"
                      d="m306.07,575.26s-24.92-38.15-42.23-43.29c-17.32-5.14-38.86-5.14-38.86-5.14l48.99-52.58s24.07-3.16,48.99,23.72,29.56,42.37,29.56,42.37l-46.46,34.91Z"
                      class="svgShape colorccd2d6-22 selectable"></path>
                <polygon fill="#ccd2d6" points="626.31 550.36 713.74 485.37 732.99 511.22 656.72 575.26 626.31 550.36"
                         class="svgShape colorccd2d6-23 selectable"></polygon>
                <path fill="#ccd2d6"
                      d="M663.37 720.25l69.62-32.02s33.01 51.59 45.36 63.15c12.35 11.56 37.06 28.46 37.06 28.46l-108.2 49.81s-62.85-47.14-43.84-109.41zM180.01 789.93s-33.58-10.67-22.81-29.65c10.77-18.98 1.04-31.43 10.34-42.7s18.17-20.75 30.21-5.34c12.04 15.42 19.64-2.37 31.04 15.42 11.4 17.79 10.14 16.6 12.67 40.32 2.53 23.72 11.4 34.99-5.7 40.32-17.1 5.34-15.88-9.19-29.16-7.56-13.28 1.63-29.75 5.19-26.58-10.82zM615.22 485.37c-1.9-2.62-25.34-21-12.67-35.82 12.67-14.82 13.3-1.45 37.38-10.81 24.07-9.36 29.77-15.88 33.58 6.66s-7.6 15.31-16.47 39.97c-8.87 24.66-41.81 0-41.81 0zM765.37 669.55c-1.31-4.35-37.38-39.14-8.24-59.3s42.44 1.19 63.98-1.19c21.54-2.37 31.68 13.43 28.51 41.11-3.17 27.68-13.3 41.32-34.21 34.2-20.91-7.12-44.35 4.15-50.05-14.82z"
                      class="svgShape colorccd2d6-24 selectable"></path>
            </g>
            <g>
                <path fill="#ccd2d6"
                      d="M305.31 579.59l-1.75-2.68c-6.77-10.36-27.25-38.1-40.58-42.05-16.68-4.95-37.79-5.02-38-5.02h-6.89s54.42-58.41 54.42-58.41l1.07-.14c1.04-.14 25.91-3.05 51.58 24.65 25.1 27.08 30.04 42.89 30.24 43.55l.6 2-50.69 38.09zm-73.62-55.55c7.86.4 21.27 1.58 33 5.06 15.58 4.62 35.97 32.92 42.11 41.87l42.12-31.65c-2.06-4.83-9.03-18.67-28.15-39.3-20.64-22.26-40.75-23.01-45.4-22.85l-43.67 46.87zM656.74 579.16l-35.31-28.92 92.91-69.07 22.74 30.52-80.35 67.46zm-25.56-28.69l25.51 20.89 72.2-60.62-15.78-21.17-81.93 60.9zM706.84 833.13l-1.43-1.07c-.66-.49-16.27-12.31-29.73-32.06-17.98-26.38-23.23-54.26-15.19-80.62l.39-1.29 73.22-33.68 1.41 2.2c.33.51 32.94 51.4 44.88 62.58 12.05 11.28 36.46 28.01 36.7 28.18l4.37 2.99-114.63 52.77zm-40.98-110.72c-7.04 24.45-2.1 49.36 14.69 74.06 10.64 15.66 23.01 26.37 27.09 29.69l101.76-46.85c-7.69-5.41-23.72-16.97-33.09-25.74-11.16-10.44-37.89-51.41-44.42-61.53l-66.02 30.36zM228.94 812.49c-5.91 0-9.33-2.79-12.22-5.15-2.97-2.42-5.11-4.17-9.76-3.6-1.07.13-2.17.28-3.27.42-9.51 1.25-19.34 2.55-24.31-2.75-2.13-2.28-3.03-5.46-2.68-9.48-5.66-2.17-19.54-8.38-23.51-18.52-1.86-4.76-1.39-9.67 1.42-14.61 5.19-9.15 5.27-16.45 5.34-23.51.07-6.87.13-13.36 5.3-19.61 6.59-7.99 12.69-14.62 20.3-14.48 5.03.07 9.79 3.08 14.58 9.21 4.84 6.2 8.31 5.98 12.72 5.7 5.19-.33 11.64-.74 18.49 9.94 10.57 16.5 10.71 17.88 12.43 34.85.2 2.01.43 4.25.7 6.78.65 6.13 1.74 11.4 2.7 16.04 2.62 12.7 4.68 22.73-10.49 27.46-2.98.93-5.52 1.31-7.71 1.31zm-20.35-14.86c5.73 0 9.12 2.78 11.92 5.06 3.58 2.92 6.41 5.24 14.35 2.76 9.59-2.99 9.24-6.72 6.4-20.52-.99-4.78-2.1-10.2-2.79-16.62-.27-2.54-.5-4.79-.7-6.81-1.68-16.61-1.71-16.92-11.51-32.21-4.94-7.71-8.34-7.49-13.06-7.19-4.92.31-11.04.7-17.83-8-3.54-4.54-6.89-6.86-9.93-6.9h-.08c-4.94 0-10.16 5.82-15.51 12.3-3.81 4.62-3.86 9.57-3.92 15.85-.07 7.09-.16 15.92-6.12 26.41-1.89 3.33-2.24 6.42-1.05 9.45 3.22 8.23 17.09 14.24 22.16 15.86l2.55.81-.52 2.63c-.64 3.25-.37 5.54.8 6.79 2.86 3.05 11.89 1.86 19.15.9 1.12-.15 2.24-.29 3.33-.43.83-.1 1.62-.15 2.36-.15zM642.31 499.32c-13.28 0-28.17-11.01-28.88-11.55l-.36-.27-.26-.35c-.19-.24-.97-1-1.65-1.66-5.83-5.7-23.57-23.05-10.88-37.88 7.49-8.76 11.78-8.9 18.18-8.4 4.46.35 10.02.78 20.39-3.25 3.49-1.36 6.62-2.66 9.38-3.82 9.84-4.11 15.78-6.6 20.66-3.91 4.37 2.41 6.19 8.41 7.59 16.68 2.3 13.66-.72 17.84-5.84 23.54-3.2 3.56-7.18 7.98-10.76 17.95-2.3 6.4-6.27 10.48-11.8 12.14-1.85.55-3.78.8-5.75.8zm-25-16.14c5.21 3.81 19.73 12.39 29.03 9.59 3.65-1.1 6.23-3.85 7.87-8.42 3.98-11.07 8.59-16.19 11.95-19.93 4.21-4.69 6.33-7.04 4.39-18.53-.79-4.69-2.12-11.07-4.57-12.42-2.35-1.29-7.84 1.01-15.45 4.19-2.79 1.17-5.96 2.49-9.52 3.87-11.65 4.53-18.23 4.01-23.03 3.64-4.99-.39-7.26-.57-13.15 6.32-8.01 9.37 1.42 20.79 10.52 29.7.96.94 1.55 1.52 1.96 1.99zM825.5 689.23c-3.41 0-7.1-.67-11.05-2.02-7.43-2.53-15.19-2.59-22.71-2.66-12.29-.1-25-.21-29.22-14.05-.3-.6-1.68-2.4-2.9-3.99-6.64-8.68-18.99-24.85-16.52-40.56 1.13-7.19 5.28-13.31 12.31-18.17 19.85-13.73 33.41-9.2 45.39-5.21 6.61 2.21 12.85 4.3 19.98 3.5 9.69-1.06 17.76 1.34 23.35 6.96 7.48 7.51 10.41 20.47 8.47 37.47-2.13 18.6-7.24 30.22-15.63 35.53-3.36 2.12-7.19 3.19-11.48 3.19zm-44.02-84.71c-6.51 0-13.74 2.04-22.64 8.2-5.71 3.95-8.92 8.59-9.8 14.18-2.08 13.17 9.7 28.58 15.36 35.98 2.46 3.22 3.47 4.58 3.85 5.81h0c2.78 9.25 10.37 9.76 23.55 9.87 7.62.06 16.25.13 24.59 2.97 7.22 2.46 12.91 2.28 17.39-.56 6.66-4.22 10.99-14.7 12.87-31.14 1.73-15.12-.61-26.38-6.76-32.56-4.32-4.34-10.52-6.11-18.44-5.23-8.44.93-15.6-1.46-22.53-3.78-5.69-1.9-11.23-3.75-17.43-3.75zm-18.94 66.03h0 0zm-.05-.14h0s0 0 0 .01c0 0 0 0 0-.01z"
                      class="svgShape colorccd2d6-26 selectable"></path>
            </g>
            <path fill="#ccd2d6"
                  d="m594.42,570.55c-1.21,0-2.34-.73-2.8-1.93-.03-.09-3.43-8.98-7.92-22.91-.51-1.58.36-3.27,1.94-3.77,1.58-.51,3.27.36,3.77,1.94,4.43,13.76,7.77,22.51,7.81,22.59.59,1.55-.18,3.28-1.73,3.88-.35.14-.72.2-1.07.2Zm-14.8-45.76c-1.31,0-2.51-.87-2.89-2.19-2.22-7.91-4.26-15.77-6.06-23.38-.38-1.61.62-3.23,2.23-3.61,1.61-.38,3.23.61,3.61,2.23,1.78,7.53,3.8,15.31,6,23.14.45,1.6-.48,3.25-2.08,3.7-.27.08-.54.11-.81.11Zm-11.01-46.76c-1.42,0-2.68-1.01-2.95-2.45-1.53-8.29-2.77-16.34-3.68-23.93-.2-1.65.98-3.14,2.62-3.33,1.66-.2,3.14.98,3.33,2.62.89,7.47,2.11,15.39,3.62,23.55.3,1.63-.78,3.19-2.4,3.5-.18.03-.37.05-.55.05Zm-5.49-47.69c-1.62,0-2.95-1.29-3-2.91-.06-2.07-.09-4.15-.09-6.17,0-6.42.31-12.55.93-18.21.18-1.65,1.67-2.84,3.31-2.66,1.65.18,2.84,1.66,2.66,3.31-.59,5.45-.9,11.35-.9,17.56,0,1.96.03,3.98.09,6,.05,1.66-1.26,3.04-2.91,3.09-.03,0-.06,0-.09,0Zm73.62-46.77c-4.06,0-8.15-.99-12.17-2.94-1.49-.72-2.11-2.52-1.39-4.01.72-1.49,2.52-2.11,4.01-1.39,3.19,1.55,6.41,2.33,9.55,2.33,3.74,0,7.13-1.12,10.07-3.31,1.33-.99,3.21-.72,4.2.61.99,1.33.72,3.21-.61,4.2-3.95,2.95-8.67,4.51-13.67,4.51Zm-67.68-.59c-.34,0-.68-.06-1.02-.18-1.56-.56-2.37-2.28-1.81-3.84,3.11-8.64,7.44-15.88,12.88-21.51,1.15-1.19,3.05-1.23,4.24-.08,1.19,1.15,1.23,3.05.08,4.24-4.84,5.02-8.73,11.54-11.55,19.38-.44,1.22-1.59,1.99-2.82,1.99Zm40.35-18.93c-1.09,0-2.15-.6-2.68-1.64-2.49-4.91-4.14-10.24-4.93-15.92-.16.1-.31.2-.47.3-1.39.89-3.25.49-4.14-.91-.89-1.4-.49-3.25.91-4.14,1.06-.68,2.12-1.32,3.18-1.94,0-.43-.01-.87-.01-1.31v-.68c.03-1.64,1.37-2.96,3-2.96.01,0,.03,0,.04,0,1.26.02,2.32.81,2.75,1.91,4.71-2.22,9.41-3.8,14.04-4.73,1.63-.32,3.21.73,3.53,2.35.33,1.62-.73,3.21-2.35,3.53-4.86.97-9.82,2.76-14.81,5.33.53,5.93,2.08,11.45,4.62,16.45.75,1.48.16,3.28-1.32,4.03-.43.22-.9.33-1.36.33Zm49.07-5.29c-1.57,0-2.89-1.23-2.99-2.82-.41-6.75-4.76-12.75-11.63-16.05-1.49-.72-2.12-2.51-1.41-4s2.51-2.12,4-1.4c8.86,4.26,14.47,12.14,15.02,21.09.1,1.65-1.16,3.08-2.81,3.18-.06,0-.12,0-.19,0Zm-49.56-41.32c-.35,0-.71-.06-1.06-.19-1.55-.58-2.33-2.32-1.75-3.87,2.22-5.89,5.22-11.88,8.93-17.81.83-1.33,1.69-2.66,2.56-3.97.92-1.38,2.78-1.75,4.16-.83,1.38.92,1.75,2.78.83,4.16-.84,1.26-1.67,2.54-2.47,3.82-3.49,5.59-6.32,11.22-8.4,16.75-.45,1.2-1.59,1.94-2.81,1.94Zm25.99-40.02c-.73,0-1.46-.26-2.03-.79-1.22-1.12-1.3-3.02-.17-4.24,5.48-5.95,11.5-11.55,17.9-16.63,1.3-1.03,3.18-.82,4.22.48,1.03,1.3.82,3.18-.48,4.22-6.16,4.9-11.95,10.28-17.23,16-.59.64-1.4.97-2.21.97Zm37.4-29.81c-1.04,0-2.04-.54-2.6-1.5-.83-1.43-.34-3.27,1.1-4.1,7.02-4.06,14.41-7.65,21.96-10.68,1.54-.62,3.28.13,3.9,1.67.62,1.54-.13,3.28-1.67,3.9-7.29,2.93-14.42,6.4-21.2,10.31-.47.27-.99.4-1.5.4Zm44.47-17.73c-1.37,0-2.61-.95-2.92-2.35-.36-1.62.66-3.22,2.27-3.58.04,0,4.08-.9,4.86-.9,1.66,0,3,1.34,3,3,0,1.52-1.13,2.77-2.59,2.97-.23.04-1.63.27-3.97.79-.22.05-.44.07-.66.07Z"
                  class="svgShape colorccd2d6-27 selectable"></path>
            <g>
                <path fill="#ccd2d6"
                      d="m803.11,188.17c-3.6-2.14-8.03-3.64-12.94-4.38-3.13-3.54-6.88-7.01-11.16-10.22-6.1-4.6-12.44-8.03-18.32-10.16-1.06-12.52,2.01-22.35,8.64-24.63,9.55-3.3,22.91,10.31,29.83,30.39,2.28,6.64,3.58,13.15,3.95,19Z"
                      class="svgShape colorccd2d6-29 selectable"></path>
                <path fill="#ccd2d6"
                      d="m780.74,232.65c-20.63,5-39.96-1.64-43.15-14.82-1.91-7.86,2.36-16.26,10.48-22.83,2.62,2.7,5.62,5.34,8.91,7.83,16.98,12.76,35.67,16.57,41.75,8.49,1.26-1.68,1.88-3.71,1.92-6.02.11-6.06-3.75-13.91-10.5-21.52,4.92.74,9.34,2.24,12.94,4.38h.01c4.75,2.83,8.06,6.76,9.22,11.57,3.19,13.18-10.95,27.91-31.61,32.91Z"
                      class="svgShape colorccd2d6-30 selectable"></path>
                <path fill="#ccd2d6"
                      d="m798.74,211.32c-6.08,8.08-24.77,4.27-41.75-8.49-3.29-2.48-6.29-5.13-8.91-7.83-10.94-11.19-15.71-23.42-10.8-29.93,3.89-5.18,12.94-5.47,23.41-1.67,5.87,2.13,12.22,5.56,18.32,10.16,4.28,3.21,8.03,6.68,11.16,10.22,6.74,7.61,10.61,15.45,10.5,21.52-.04,2.3-.66,4.34-1.92,6.02Z"
                      opacity=".5" class="svgShape colorccd2d6-31 selectable"></path>
                <path fill="#ccd2d6"
                      d="m788.09,218.51c-9.27,0-21.39-4.62-32.91-13.28-3.38-2.55-6.49-5.28-9.26-8.14-12.53-12.82-16.87-26.1-11.04-33.83,4.6-6.11,14.63-7.12,26.83-2.68,6.37,2.31,12.98,5.97,19.1,10.58,4.33,3.25,8.24,6.83,11.6,10.63,7.38,8.33,11.38,16.7,11.25,23.56-.05,2.98-.9,5.59-2.52,7.76h0c-2.73,3.64-7.35,5.39-13.05,5.39Zm-40.23-54.69c-3.78,0-6.65,1.02-8.18,3.06-3.76,4.99.68,15.93,10.55,26.03,2.56,2.64,5.44,5.17,8.57,7.53,16.7,12.55,33.19,14.87,37.55,9.09.86-1.15,1.29-2.55,1.32-4.27.1-5.2-3.55-12.48-9.74-19.48-3.1-3.5-6.7-6.8-10.71-9.81-5.65-4.26-11.72-7.62-17.54-9.74-4.43-1.61-8.47-2.41-11.81-2.41Zm50.88,47.51h0,0Z"
                      class="svgShape colorccd2d6-32 selectable"></path>
            </g>
            <g>
                <path fill="#ccd2d6"
                      d="M838.95 772.28h-34.25c6.16 4.46 10.71 7.57 10.71 7.57l-46.64 21.47-21.96 109.08h1.79v20.94h-59.41v-20.94h-401.12v20.94h-59.41v-20.94l-22.07-109.65c-13.28 1.63-29.75 5.19-26.58-10.82 0 0-19.48-6.2-24-17.53-24.86 1.18-47.26 11.07-63.75 26.46-17.6 16.42-28.49 39.12-28.49 64.18 0 50.14 43.55 90.77 97.28 90.77h677.91c26.86 0 51.18-10.16 68.79-26.58 17.6-16.43 28.49-39.13 28.49-64.19 0-50.13-43.55-90.76-97.28-90.76zM161.05 409.23c-26.86 0-51.19 10.16-68.79 26.58-17.6 16.42-28.49 39.12-28.49 64.18 0 50.13 43.55 90.76 97.28 90.76h97.51c18.74 0 36.24 4.95 51.09 13.51h130.27c.82-10 1.28-19.63.17-21.14-2.42-3.3-16.95-35.44-22.67-53.37-5.73-17.92-4.63-24.31-1.1-31.94 3.52-7.62 8.14-10.71 8.14-10.71 0 0-.94-11.13 2.61-19.16 3.55-8.04 9.72-10.1 9.72-10.1 0 0-3.74-8.24 1.98-21.01 5.72-12.78 13.65-11.75 13.65-11.75 0 0-11.23-59.13-.88-67.17 10.34-8.03 10.56-2.47 16.06 13.19 1.36 3.87 2.98 8.56 4.64 13.42l13.45-128.46c-.87-.21-1.75-.42-2.66-.62-16.1-3.57-39.03-5.55-53.97 6.48-25.1 20.19-57.24 29.25-95.98 17.31-12.83-3.96-29.23-2.49-45.44 1.24 5.72 11.56 8.91 24.43 8.91 37.99 0 25.06-10.89 47.76-28.49 64.18-17.61 16.42-41.93 26.58-68.79 26.58h-38.23zm112.93 65.03s24.07-3.16 48.99 23.72c24.91 26.88 29.56 42.37 29.56 42.37l-46.46 34.91s-24.91-38.14-42.23-43.28c-17.32-5.14-38.86-5.14-38.86-5.14l49-52.58z"
                      opacity=".25" class="svgShape colorccd2d6-34 selectable"></path>
                <path fill="#ccd2d6"
                      d="m838.95,409.23h-121.59c-53.73,0-97.28-40.63-97.28-90.76,0-25.06,10.89-47.76,28.49-64.18,17.6-16.42,41.93-26.58,68.79-26.58h26.98c-3.41-2.63-5.8-5.96-6.75-9.88-1.9-7.85,2.37-16.26,10.49-22.83-10.94-11.18-15.71-23.42-10.8-29.93,3.89-5.17,12.94-5.47,23.41-1.66-1.06-12.52,2.01-22.36,8.64-24.63,9.56-3.3,22.92,10.31,29.83,30.39,2.28,6.64,3.58,13.15,3.95,19h.01c4.76,2.83,8.06,6.76,9.23,11.57,2.45,10.11-5.31,21.13-18.38,27.97h44.99c26.86,0,51.18-10.16,68.79-26.58,17.6-16.42,28.49-39.12,28.49-64.18,0-50.13-43.55-90.76-97.28-90.76H161.05c-26.86,0-51.19,10.16-68.79,26.58-17.6,16.42-28.49,39.12-28.49,64.18,0,50.13,43.55,90.76,97.28,90.76h38.23c9.23,0,18.16,1.2,26.62,3.44l3.74-95.74s44.46-32.55,102.13-21.42,78.36.82,113.14-24.73c19.62-14.41,41.41-14.13,56.68-11.15,11.81,2.3,19.73,6.22,19.73,6.22l-19.47,175.71c1.67.6,2.62.98,2.62.98l-16.22,146.48c5.64-8.01,14.34-18.58,19.57-16.13,8.22,3.85.88,29.12,4.11,36.26,3.23,7.15,17.02,28.3,22.31,63.74,5.28,35.44-.3,57.42-4.7,66.48-4.4,9.07-2.35,11.81-.88,21.43,1.47,9.62-1.17,15.11-1.17,18.13,0,.67-.06,3.24-.15,6.86h223.73c14.85-8.57,32.35-13.51,51.09-13.51h36.81c26.86,0,51.18-10.16,68.79-26.58,17.6-16.42,28.49-39.12,28.49-64.18,0-50.13-43.55-90.76-97.28-90.76ZM524.61,79.14l-.58,5.19s-7.92-3.92-19.73-6.22l.1-.87c.51-4.87,4.88-8.58,10.1-8.58,5.67,0,10.16,4.31,10.16,9.49,0,.32-.02.66-.05.99Zm77.94,370.41c12.67-14.82,13.31-1.45,37.38-10.8,24.07-9.36,29.78-15.88,33.58,6.65,3.8,22.53-7.6,15.31-16.47,39.97-8.87,24.67-41.82,0-41.82,0-1.9-2.61-25.34-20.99-12.67-35.82Zm54.17,125.71l-30.41-24.9,87.43-64.99,19.25,25.85-76.27,64.04Z"
                      opacity=".25" class="svgShape colorccd2d6-35 selectable"></path>
            </g>
        </svg>
    </g>
</svg>
