<svg width="204" height="36" viewBox="0 0 204 36" xmlns="http://www.w3.org/2000/svg">
  <g transform="translate(0 0)">
    <rect width="204" height="36" rx="4" transform="translate(0 0)" fill="#141414" stroke="#e0e0e0"
      stroke-width="1"></rect>
    <text transform="translate(37 23)" fill="#dfdfdf" font-size="14"
      font-family="Roboto-Medium,Roboto">
      <tspan x="0" y="0">Download for Chrome</tspan>
    </text>
  </g>
  <g transform="translate(12 6)">
    <rect width="24" height="24" fill="#ffffff" opacity="0"></rect>
    <g transform="matrix(0.38 0 0 0.38 12 12)">
      <g style="">
        <g transform="matrix(1 0 0 1 0 0)">
          <path
            style="stroke: none; stroke-width: 1; stroke-dasharray: none; stroke-linecap: butt; stroke-dashoffset: 0; stroke-linejoin: miter; stroke-miterlimit: 4; fill: rgb(76,175,80); fill-rule: nonzero; opacity: 1;"
            transform=" translate(-24, -24)"
            d="M 44 24 C 44 35.044 35.044 44 24 44 C 12.956000000000003 44 4 35.044 4 24 C 4 12.956000000000003 12.956 4 24 4 C 35.044 4 44 12.956 44 24 z"
            stroke-linecap="round"></path>
        </g>
        <g transform="matrix(1 0 0 1 9.58 0)">
          <path
            style="stroke: none; stroke-width: 1; stroke-dasharray: none; stroke-linecap: butt; stroke-dashoffset: 0; stroke-linejoin: miter; stroke-miterlimit: 4; fill: rgb(255,193,7); fill-rule: nonzero; opacity: 1;"
            transform=" translate(-33.58, -24)"
            d="M 24 4 L 24 24 L 32 28 L 23.157 44 C 23.474 44 23.683 44 24 44 C 35.053 44 44 35.053 44 24 C 44 12.947000000000003 35.053 4 24 4 z"
            stroke-linecap="round"></path>
        </g>
        <g transform="matrix(1 0 0 1 0 0)">
          <path
            style="stroke: none; stroke-width: 1; stroke-dasharray: none; stroke-linecap: butt; stroke-dashoffset: 0; stroke-linejoin: miter; stroke-miterlimit: 4; fill: rgb(76,175,80); fill-rule: nonzero; opacity: 1;"
            transform=" translate(-24, -24)"
            d="M 44 24 C 44 35.044 35.044 44 24 44 C 12.956000000000003 44 4 35.044 4 24 C 4 12.956000000000003 12.956 4 24 4 C 35.044 4 44 12.956 44 24 z"
            stroke-linecap="round"></path>
        </g>
        <g transform="matrix(1 0 0 1 9.58 0)">
          <path
            style="stroke: none; stroke-width: 1; stroke-dasharray: none; stroke-linecap: butt; stroke-dashoffset: 0; stroke-linejoin: miter; stroke-miterlimit: 4; fill: rgb(255,193,7); fill-rule: nonzero; opacity: 1;"
            transform=" translate(-33.58, -24)"
            d="M 24 4 L 24 24 L 32 28 L 23.157 44 C 23.474 44 23.683 44 24 44 C 35.053 44 44 35.053 44 24 C 44 12.947000000000003 35.053 4 24 4 z"
            stroke-linecap="round"></path>
        </g>
        <g transform="matrix(1 0 0 1 0.49 -8)">
          <path
            style="stroke: none; stroke-width: 1; stroke-dasharray: none; stroke-linecap: butt; stroke-dashoffset: 0; stroke-linejoin: miter; stroke-miterlimit: 4; fill: rgb(244,67,54); fill-rule: nonzero; opacity: 1;"
            transform=" translate(-24.49, -16)"
            d="M 41.84 15 L 24 15 L 24 28 L 21 27 L 7.16 13.26 L 7.14 13.26 C 10.68 7.69 16.91 4 24 4 C 31.8 4 38.55 8.48 41.84 15 z"
            stroke-linecap="round"></path>
        </g>
        <g transform="matrix(1 0 0 1 -9.92 -3.3)">
          <path
            style="stroke: none; stroke-width: 1; stroke-dasharray: none; stroke-linecap: butt; stroke-dashoffset: 0; stroke-linejoin: miter; stroke-miterlimit: 4; fill: rgb(221,44,0); fill-rule: nonzero; opacity: 1;"
            transform=" translate(-14.08, -20.7)"
            d="M 7.158 13.264 L 16.001 28.125999999999998 L 21 27 L 7.158 13.264 z"
            stroke-linecap="round"></path>
        </g>
        <g transform="matrix(1 0 0 1 3.62 10.5)">
          <path
            style="stroke: none; stroke-width: 1; stroke-dasharray: none; stroke-linecap: butt; stroke-dashoffset: 0; stroke-linejoin: miter; stroke-miterlimit: 4; fill: rgb(85,139,47); fill-rule: nonzero; opacity: 1;"
            transform=" translate(-27.62, -34.5)"
            d="M 23.157 44 L 32.091 27.941 L 28 25 L 23.157 44 z" stroke-linecap="round"></path>
        </g>
        <g transform="matrix(1 0 0 1 8.14 -6.71)">
          <path
            style="stroke: none; stroke-width: 1; stroke-dasharray: none; stroke-linecap: butt; stroke-dashoffset: 0; stroke-linejoin: miter; stroke-miterlimit: 4; fill: rgb(249,168,37); fill-rule: nonzero; opacity: 1;"
            transform=" translate(-32.14, -17.29)"
            d="M 41.865 15 L 24 15 L 22.421 19.58 L 41.865 15 z" stroke-linecap="round"></path>
        </g>
        <g transform="matrix(1 0 0 1 0 0)">
          <path
            style="stroke: none; stroke-width: 1; stroke-dasharray: none; stroke-linecap: butt; stroke-dashoffset: 0; stroke-linejoin: miter; stroke-miterlimit: 4; fill: rgb(255,255,255); fill-rule: nonzero; opacity: 1;"
            transform=" translate(-24, -24)"
            d="M 33 24 C 33 28.969 28.969 33 24 33 C 19.031 33 15 28.969 15 24 C 15 19.031 19.031 15 24 15 C 28.969 15 33 19.031 33 24 z"
            stroke-linecap="round"></path>
        </g>
        <g transform="matrix(1 0 0 1 0 0)">
          <path
            style="stroke: none; stroke-width: 1; stroke-dasharray: none; stroke-linecap: butt; stroke-dashoffset: 0; stroke-linejoin: miter; stroke-miterlimit: 4; fill: rgb(33,150,243); fill-rule: nonzero; opacity: 1;"
            transform=" translate(-24, -24)"
            d="M 31 24 C 31 27.867 27.867 31 24 31 C 20.133 31 17 27.867 17 24 C 17 20.133 20.133 17 24 17 C 27.867 17 31 20.133 31 24 z"
            stroke-linecap="round"></path>
        </g>
      </g>
    </g>
  </g>
</svg>
