<svg width="204" height="36" viewBox="0 0 204 36" xmlns="http://www.w3.org/2000/svg">
  <g transform="translate(0 0)">
    <rect width="204" height="36" rx="4" transform="translate(0 0)" fill="#141414" stroke="#e0e0e0"
      stroke-width="1"></rect>
    <text transform="translate(40 23)" fill="#dfdfdf" font-size="14"
      font-family="Roboto-Medium,Roboto">
      <tspan x="0" y="0">Download for Firefox</tspan>
    </text>
  </g>
  <g transform="translate(12 6)">
    <rect width="24" height="24" fill="#ffffff" opacity="0"></rect>
    <g transform="matrix(0.38 0 0 0.38 12 12)">
      <g style="">
        <g transform="matrix(1 0 0 1 0 0)">
          <path
            style="stroke: none; stroke-width: 1; stroke-dasharray: none; stroke-linecap: butt; stroke-dashoffset: 0; stroke-linejoin: miter; stroke-miterlimit: 4; fill: rgb(1,87,155); fill-rule: nonzero; opacity: 1;"
            transform=" translate(-24, -24)"
            d="M 24 5 C 13.506589753214925 5 5 13.506589753214925 5 24 C 5 34.493410246785075 13.506589753214925 43 24 43 C 34.493410246785075 43 43 34.493410246785075 43 24 C 43 13.506589753214925 34.493410246785075 5 24 5 Z"
            stroke-linecap="round"></path>
        </g>
        <g transform="matrix(1 0 0 1 -3.5 -7)">
          <path
            style="stroke: none; stroke-width: 1; stroke-dasharray: none; stroke-linecap: butt; stroke-dashoffset: 0; stroke-linejoin: miter; stroke-miterlimit: 4; fill: rgb(2,119,189); fill-rule: nonzero; opacity: 1;"
            transform=" translate(-20.5, -17)"
            d="M 34 20.8 C 34 20.2 34 17.900000000000002 32.5 16.1 C 32.4 16 32.3 15.8 32.3 15.700000000000001 C 32.199999999999996 15.600000000000001 32.199999999999996 15.500000000000002 32.099999999999994 15.3 L 31.9 15 L 31.7 14.7 C 31.5 14.399999999999999 31.4 14.2 31.4 14.2 C 31 13.6 30.9 12.799999999999999 31.299999999999997 12.1 C 31.4 11.9 31.599999999999998 11.7 31.699999999999996 11.5 C 31.599999999999994 11.4 31.499999999999996 11.3 31.399999999999995 11.3 C 31.399999999999995 11.3 31.399999999999995 11.3 31.299999999999994 11.3 C 30.999999999999993 11.100000000000001 30.699999999999992 10.9 30.499999999999993 10.700000000000001 L 29.799999999999994 10.200000000000001 L 29.799999999999994 10.200000000000001 C 29.3 9.9 29 9.8 29 9.7 C 28.3 9.299999999999999 27.9 8.6 28 7.799999999999999 C 28.1 6.999999999999999 28.6 6.299999999999999 29.4 6.099999999999999 C 29.5 6.099999999999999 29.7 5.999999999999999 29.9 5.999999999999999 C 29.9 5.999999999999999 29.9 5.999999999999999 29.799999999999997 5.8999999999999995 C 28 5.3 26 5 24 5 C 16.6 5 10.1 9.3 7 15.5 C 7 15.7 7 15.8 7 16 C 7 23.2 13.3 29 21 29 C 26.9 29 31.9 25.6 34 20.8 z"
            stroke-linecap="round"></path>
        </g>
        <g transform="matrix(1 0 0 1 11.65 -9.05)">
          <path
            style="stroke: none; stroke-width: 1; stroke-dasharray: none; stroke-linecap: butt; stroke-dashoffset: 0; stroke-linejoin: miter; stroke-miterlimit: 4; fill: rgb(255,241,118); fill-rule: nonzero; opacity: 1;"
            transform=" translate(-35.65, -14.95)"
            d="M 30 8 C 30 8 30.3 7.9 30.9 7.9 C 31.2 7.9 31.5 7.9 31.9 7.9 C 32.3 7.9 32.699999999999996 8 33.199999999999996 8.1 C 33.699999999999996 8.2 34.199999999999996 8.4 34.699999999999996 8.6 C 35.199999999999996 8.799999999999999 35.8 9.1 36.3 9.5 C 36.8 9.8 37.3 10.3 37.8 10.7 C 38.3 11.1 38.699999999999996 11.7 39.099999999999994 12.2 C 39.39999999999999 12.799999999999999 39.8 13.299999999999999 40.099999999999994 13.899999999999999 C 40.39999999999999 14.499999999999998 40.599999999999994 15.099999999999998 40.8 15.7 C 41 16.3 41.099999999999994 16.9 41.199999999999996 17.4 C 41.3 18 41.3 18.5 41.3 18.9 C 41.3 19.099999999999998 41.3 19.4 41.3 19.599999999999998 C 41.3 19.799999999999997 41.3 19.999999999999996 41.199999999999996 20.2 C 41.199999999999996 20.599999999999998 41.099999999999994 20.9 41.099999999999994 21.2 C 41.1 21.7 41 22 41 22 C 41 22 40.8 21.7 40.6 21.2 C 40.5 21 40.300000000000004 20.7 40.2 20.3 C 40.1 20 39.900000000000006 19.6 39.7 19.2 C 39.5 18.8 39.300000000000004 18.4 39.1 17.9 C 38.9 17.5 38.6 17 38.4 16.5 C 38.199999999999996 16 37.9 15.6 37.6 15.1 C 37.300000000000004 14.6 37 14.2 36.7 13.799999999999999 C 36.400000000000006 13.399999999999999 36.1 12.899999999999999 35.7 12.6 C 35.300000000000004 12.2 35 11.799999999999999 34.6 11.5 C 34.300000000000004 11.1 33.9 10.8 33.5 10.5 C 33.1 10.2 32.8 9.9 32.4 9.7 C 32.1 9.399999999999999 31.7 9.2 31.4 9 C 31.099999999999998 8.8 30.799999999999997 8.6 30.599999999999998 8.5 C 30.3 8.2 30 8 30 8 z"
            stroke-linecap="round"></path>
        </g>
        <g transform="matrix(1 0 0 1 14.12 -5.5)">
          <path
            style="stroke: none; stroke-width: 1; stroke-dasharray: none; stroke-linecap: butt; stroke-dashoffset: 0; stroke-linejoin: miter; stroke-miterlimit: 4; fill: rgb(253,216,53); fill-rule: nonzero; opacity: 1;"
            transform=" translate(-38.12, -18.5)"
            d="M 43.1 17.6 C 42.800000000000004 15.400000000000002 41.9 13.400000000000002 40.9 12.000000000000002 C 40.4 11.300000000000002 39.9 10.800000000000002 39.6 10.500000000000002 C 39.2 10.2 39 10 39 10 C 39 10 39 10.3 39.1 10.8 C 39.2 11.3 39.2 11.9 39.300000000000004 12.700000000000001 C 39.400000000000006 13.100000000000001 39.400000000000006 13.500000000000002 39.50000000000001 13.9 C 39.10000000000001 13.3 38.60000000000001 12.700000000000001 38.10000000000001 12.3 C 37.60000000000001 11.8 37.00000000000001 11.5 36.70000000000001 11.3 C 36.2 11.1 36 11 36 11 C 36 11 36.1 11.2 36.2 11.6 C 36.300000000000004 12 36.5 12.5 36.7 13.2 C 36.900000000000006 13.899999999999999 37.2 14.799999999999999 37.5 15.7 C 36.9 15 36.3 14.399999999999999 35.7 14 C 35 13.6 34.400000000000006 13.3 33.900000000000006 13.2 C 33.3 13 33 13 33 13 C 33 13 33.2 13.2 33.4 13.6 C 33.5 13.799999999999999 33.699999999999996 14 33.8 14.299999999999999 C 34 14.6 34.099999999999994 14.899999999999999 34.3 15.2 C 34.599999999999994 15.799999999999999 35 16.5 35.3 17.3 C 35.5 17.7 35.599999999999994 18.1 35.8 18.5 C 35.9 18.9 36.199999999999996 19.3 36.3 19.8 C 36.5 20.2 36.599999999999994 20.6 36.8 21.1 C 36.9 21.5 37.099999999999994 21.900000000000002 37.199999999999996 22.400000000000002 C 37.3 22.8 37.49999999999999 23.200000000000003 37.599999999999994 23.6 C 37.699999999999996 24 37.8 24.400000000000002 37.99999999999999 24.700000000000003 C 38.29999999999999 25.400000000000002 38.49999999999999 26.000000000000004 38.699999999999996 26.400000000000002 C 38.9 26.8 39 27 39 27 C 39 27 39.1 26.8 39.3 26.3 C 39.4 26.1 39.5 25.8 39.5 25.5 C 39.6 25.2 39.7 24.8 39.7 24.4 C 39.7 24.099999999999998 39.800000000000004 23.799999999999997 39.800000000000004 23.5 C 39.9 23.8 40 24 40 24 C 40 24 40.1 23.8 40.3 23.4 C 40.4 23.2 40.5 23 40.599999999999994 22.7 C 40.599999999999994 22.7 40.599999999999994 22.599999999999998 40.599999999999994 22.599999999999998 C 40.599999999999994 22.799999999999997 40.599999999999994 23.099999999999998 40.699999999999996 23.299999999999997 C 40.699999999999996 23.699999999999996 40.8 23.999999999999996 40.8 24.299999999999997 C 40.8 24.599999999999998 40.8 24.9 40.8 25.199999999999996 C 40.8 25.699999999999996 40.9 25.999999999999996 40.9 25.999999999999996 C 40.9 25.999999999999996 41.1 25.799999999999997 41.4 25.399999999999995 C 41.5 25.199999999999996 41.699999999999996 24.999999999999996 41.9 24.699999999999996 C 42.1 24.399999999999995 42.199999999999996 24.099999999999994 42.4 23.699999999999996 C 42.6 23.299999999999997 42.699999999999996 22.899999999999995 42.8 22.399999999999995 C 42.9 21.899999999999995 43 21.399999999999995 43.099999999999994 20.899999999999995 C 43.199999999999996 20.399999999999995 43.199999999999996 19.799999999999994 43.199999999999996 19.299999999999994 C 43.3 18.7 43.2 18.1 43.1 17.6 z"
            stroke-linecap="round"></path>
        </g>
        <g transform="matrix(1 0 0 1 15.1 2)">
          <path
            style="stroke: none; stroke-width: 1; stroke-dasharray: none; stroke-linecap: butt; stroke-dashoffset: 0; stroke-linejoin: miter; stroke-miterlimit: 4; fill: rgb(255,179,0); fill-rule: nonzero; opacity: 1;"
            transform=" translate(-39.1, -26)"
            d="M 44.1 19.8 C 44.1 19.3 44 19 44 19 C 44 19 43.8 19.3 43.5 19.7 C 43.2 20.2 42.9 20.8 42.5 21.599999999999998 C 42.2 22.299999999999997 41.8 23.099999999999998 41.4 23.9 C 41.4 23.099999999999998 41.4 22.4 41.3 21.7 C 41.199999999999996 21.099999999999998 41.099999999999994 20.599999999999998 41 20.099999999999998 C 40.8 19.599999999999998 40.7 19.099999999999998 40.5 18.7 C 40.2 17.8 39.8 17.2 39.5 16.7 C 39.2 16.2 39 16 39 16 C 39 16 38.9 17.2 38.9 19 C 38.9 19.9 38.8 20.8 38.699999999999996 21.9 C 38.699999999999996 22.4 38.599999999999994 22.9 38.599999999999994 23.5 C 38.599999999999994 24 38.49999999999999 24.6 38.39999999999999 25.1 C 38.39999999999999 25.200000000000003 38.39999999999999 25.400000000000002 38.39999999999999 25.5 C 38.29999999999999 24.6 37.99999999999999 23.7 37.599999999999994 23.1 C 37.3 22.400000000000002 36.89999999999999 21.900000000000002 36.599999999999994 21.6 C 36.2 21.1 36 21 36 21 C 36 21 36 21.3 36 21.7 C 36 22.099999999999998 36 22.7 35.9 23.4 C 35.8 24.7 35.6 26.4 35.4 28 C 35.3 28.4 35.199999999999996 28.8 35.199999999999996 29.2 C 35.099999999999994 29.599999999999998 34.99999999999999 30 34.99999999999999 30.4 C 34.89999999999999 30.799999999999997 34.79999999999999 31.2 34.699999999999996 31.5 C 34.599999999999994 31.9 34.49999999999999 32.2 34.49999999999999 32.5 C 34.39999999999999 32.8 34.39999999999999 33.2 34.29999999999999 33.4 C 34.19999999999999 33.699999999999996 34.19999999999999 33.9 34.09999999999999 34.199999999999996 C 34 34.7 34 35 34 35 C 34 35 34.2 34.9 34.6 34.6 C 35 34.300000000000004 35.5 34 36 33.4 C 36.2 33.1 36.5 32.8 36.8 32.4 C 37 32 37.3 31.7 37.5 31.299999999999997 C 37.5 31.599999999999998 37.4 31.9 37.4 32.199999999999996 C 37.3 32.49999999999999 37.3 32.9 37.199999999999996 33.099999999999994 C 37 33.7 37 34 37 34 C 37.1 33.9 37.4 34 37.7 34.1 C 37.7 34.2 37.6 34.300000000000004 37.6 34.300000000000004 C 37.5 34.6 37.4 34.900000000000006 37.300000000000004 35.2 C 37.1 35.7 37 36 37 36 C 37 36 37.3 35.9 37.7 35.6 C 37.900000000000006 35.4 38.2 35.300000000000004 38.5 35 C 38.8 34.8 39.1 34.5 39.4 34.1 C 39.699999999999996 33.800000000000004 40 33.4 40.4 33 C 40.699999999999996 32.6 41 32.1 41.3 31.6 C 41.9 30.6 42.4 29.5 42.8 28.400000000000002 C 43.199999999999996 27.3 43.599999999999994 26.1 43.8 25.000000000000004 C 44 23.900000000000002 44.099999999999994 22.900000000000002 44.199999999999996 22.000000000000004 C 44.2 21.1 44.2 20.4 44.1 19.8 z"
            stroke-linecap="round"></path>
        </g>
        <g transform="matrix(1 0 0 1 -1 2.25)">
          <path
            style="stroke: none; stroke-width: 1; stroke-dasharray: none; stroke-linecap: butt; stroke-dashoffset: 0; stroke-linejoin: miter; stroke-miterlimit: 4; fill: rgb(255,152,0); fill-rule: nonzero; opacity: 1;"
            transform=" translate(-23, -26.25)"
            d="M 41.4 30.4 C 41 30.599999999999998 40.6 31 40 31.4 C 39.2 32 38.3 32.8 37.4 33.699999999999996 C 37.5 33.4 37.699999999999996 33.099999999999994 37.8 32.8 C 38.099999999999994 31.9 38.199999999999996 31.099999999999998 38.3 30.4 C 38.3 29.7 38.3 29.099999999999998 38.199999999999996 28.7 C 38.1 28.2 38 28 38 28 C 38 28 37.8 28.2 37.6 28.5 C 37.4 28.8 37 29.3 36.6 29.8 C 36.2 30.3 35.800000000000004 31 35.4 31.6 C 35.3 31.700000000000003 35.3 31.8 35.199999999999996 31.900000000000002 C 35.4 31.3 35.4 30.6 35.4 30.000000000000004 C 35.4 29.200000000000003 35.199999999999996 28.400000000000002 35 27.800000000000004 C 34.8 27.200000000000003 34.5 26.700000000000003 34.3 26.400000000000006 C 34.2 26.2 34 26 34 26 C 34 26 33.9 26.2 33.8 26.6 C 33.699999999999996 26.900000000000002 33.5 27.400000000000002 33.3 28 C 33.099999999999994 28.5 33 29.1 32.8 29.8 C 32.699999999999996 30.1 32.599999999999994 30.400000000000002 32.5 30.8 C 32.4 31.1 32.3 31.400000000000002 32.2 31.6 C 30.300000000000004 33.5 28.000000000000004 34 25.800000000000004 34.1 C 24.600000000000005 34.1 23.500000000000004 33.9 22.500000000000004 33.6 C 22.500000000000004 33.6 22.500000000000004 33.6 22.500000000000004 33.6 C 22.500000000000004 33.6 22.500000000000004 33.6 22.500000000000004 33.6 C 21.000000000000004 33.1 19.600000000000005 32.2 18.300000000000004 31 C 20.200000000000003 31.2 22.000000000000004 30.8 23.500000000000004 30.1 L 26.000000000000004 28.5 L 26.000000000000004 28.5 C 26.300000000000004 28.4 26.600000000000005 28.4 26.900000000000002 28.5 C 27.500000000000004 28.4 27.700000000000003 28.1 27.500000000000004 27.5 C 27.200000000000003 27.1 26.700000000000003 26.7 26.200000000000003 26.4 C 24.900000000000002 25.7 23.6 25.799999999999997 22.200000000000003 26.7 C 20.900000000000002 27.4 19.700000000000003 27.3 18.400000000000002 26.599999999999998 C 15.300000000000002 24.999999999999996 16.500000000000004 20.9 19.8 22.999999999999996 C 20 21.999999999999996 19.7 20.899999999999995 19.1 19.799999999999997 C 19.1 19.799999999999997 19.1 19.799999999999997 19.1 19.799999999999997 C 16.200000000000003 14.499999999999996 19.5 10.199999999999998 20.6 9.499999999999996 C 18.6 9.699999999999996 16.8 10.599999999999996 15.200000000000001 12.099999999999996 C 4.9 10.9 4 20.9 4 21 L 5.2 19.9 C 4.8 21 4.5 22.099999999999998 4.4 23.299999999999997 C 4 27.2 5.1 31 7.7 34.8 C 11.7 39.9 18 43 24 43 C 30.8 43 35.2 40.5 38.1 37.3 C 38.300000000000004 37.099999999999994 38.5 36.9 38.7 36.699999999999996 C 39.300000000000004 35.99999999999999 39.900000000000006 35.3 40.400000000000006 34.49999999999999 C 40.900000000000006 33.79999999999999 41.2 32.99999999999999 41.50000000000001 32.29999999999999 C 41.70000000000001 31.59999999999999 41.900000000000006 30.99999999999999 42.00000000000001 30.59999999999999 C 42 30.3 42 30 42 30 C 42 30 41.8 30.1 41.4 30.4 z"
            stroke-linecap="round"></path>
        </g>
        <g transform="matrix(1 0 0 1 -7.5 -4.52)">
          <path
            style="stroke: none; stroke-width: 1; stroke-dasharray: none; stroke-linecap: butt; stroke-dashoffset: 0; stroke-linejoin: miter; stroke-miterlimit: 4; fill: rgb(239,108,0); fill-rule: nonzero; opacity: 1;"
            transform=" translate(-16.5, -19.48)"
            d="M 12 28 C 11.8 21 16.3 21.6 18.6 22.4 C 17 22.1 16.3 23.6 17 25 C 16.7 25 13.6 24.7 12 28 z M 18.3 30.9 C 20.2 31.099999999999998 22 30.7 23.5 30 L 26 28.4 L 26 28.4 C 26.2 28.299999999999997 26.5 28.299999999999997 26.7 28.4 L 26.7 28.4 C 23.8 26.7 20.7 30.299999999999997 13.899999999999999 29.2 C 15.6 30.5 18.3 30.9 18.3 30.9 z M 18.1 14.5 C 17.900000000000002 16 18.200000000000003 17.8 19.200000000000003 19.7 C 19.200000000000003 19.7 19.200000000000003 19.7 19.200000000000003 19.7 C 19.200000000000003 19.7 19.200000000000003 19.7 19.200000000000003 19.7 C 20.6 18.9 22 18 22 18 C 22 18 24 16 22 16 C 20.1 16 18.8 15.2 18.1 14.5 z M 10.3 12.4 C 9.4 11.6 8 10 8 8 C 8 8 5.6 11.9 6.5 15 C 7.4 13.9 8.7 13 10.3 12.4 z"
            stroke-linecap="round"></path>
        </g>
        <g transform="matrix(1 0 0 1 -3.7 -5.65)">
          <path
            style="stroke: none; stroke-width: 1; stroke-dasharray: none; stroke-linecap: butt; stroke-dashoffset: 0; stroke-linejoin: miter; stroke-miterlimit: 4; fill: rgb(255,204,128); fill-rule: nonzero; opacity: 1;"
            transform=" translate(-20.3, -18.35)"
            d="M 19.2 19.7 C 19.2 19.7 19.2 19.7 19.2 19.7 C 19.2 19.7 19.2 19.7 19.2 19.7 C 20.6 18.9 22 18 22 18 C 22 18 22.2 17.8 22.4 17.6 L 22 17 L 18.2 17 C 18.4 17.9 18.7 18.8 19.2 19.7 z"
            stroke-linecap="round"></path>
        </g>
        <g transform="matrix(1 0 0 1 -2.06 -7.05)">
          <path
            style="stroke: none; stroke-width: 1; stroke-dasharray: none; stroke-linecap: butt; stroke-dashoffset: 0; stroke-linejoin: miter; stroke-miterlimit: 4; fill: rgb(93,64,55); fill-rule: nonzero; opacity: 1;"
            transform=" translate(-21.94, -16.95)"
            d="M 22 16 C 21.7 16 21.4 16 21.1 15.9 L 21 16 C 21 16 21.8 17.3 22 18 C 22 18 24 16 22 16 z"
            stroke-linecap="round"></path>
        </g>
      </g>
    </g>
  </g>
</svg>
